# Blender 5.2.1 LTS
# www.blender.org
mtllib D6.mtl
o D6
v -0.866717 1.339539 0.866717
v -0.866717 1.472822 1.000000
v -1.000000 1.472822 0.866717
v -0.866717 1.349684 0.917722
v -0.866717 1.378576 0.960962
v -0.917722 1.349684 0.866717
v -0.919001 1.361929 0.919001
v -0.916348 1.385354 0.954185
v -0.943668 1.395871 0.943668
v -0.917722 1.472822 0.989854
v -0.960962 1.472822 0.960962
v -0.866717 1.421816 0.989854
v -0.919001 1.420538 0.977610
v -0.954185 1.423191 0.954185
v -0.989854 1.421816 0.866717
v -0.960962 1.378576 0.866717
v -0.989854 1.472822 0.917722
v -0.977610 1.420538 0.919001
v -0.954185 1.385354 0.916348
v -0.866717 3.206256 1.000000
v -0.866717 3.339539 0.866717
v -1.000000 3.206256 0.866717
v -0.866717 3.257261 0.989854
v -0.866717 3.300501 0.960962
v -0.917722 3.206256 0.989854
v -0.919001 3.258539 0.977610
v -0.916348 3.293724 0.954185
v -0.943668 3.283207 0.943668
v -0.917722 3.329393 0.866717
v -0.960962 3.300501 0.866717
v -0.866717 3.329393 0.917722
v -0.919001 3.317149 0.919001
v -0.954185 3.293724 0.916348
v -0.989854 3.206256 0.917722
v -0.960962 3.206256 0.960962
v -0.989854 3.257261 0.866717
v -0.977610 3.258539 0.919001
v -0.954185 3.255887 0.954185
v -0.866717 1.339539 -0.866717
v -1.000000 1.472822 -0.866717
v -0.866717 1.472822 -1.000000
v -0.917722 1.349684 -0.866717
v -0.960962 1.378576 -0.866717
v -0.866717 1.349684 -0.917722
v -0.919001 1.361929 -0.919001
v -0.954185 1.385354 -0.916348
v -0.943668 1.395871 -0.943668
v -0.989854 1.472822 -0.917722
v -0.960962 1.472822 -0.960962
v -0.989854 1.421816 -0.866717
v -0.977610 1.420538 -0.919001
v -0.954185 1.423191 -0.954185
v -0.866717 1.421816 -0.989854
v -0.866717 1.378576 -0.960962
v -0.917722 1.472822 -0.989854
v -0.919001 1.420538 -0.977610
v -0.916348 1.385354 -0.954185
v -0.866717 3.339539 -0.866717
v -0.866717 3.206256 -1.000000
v -1.000000 3.206256 -0.866717
v -0.866717 3.329393 -0.917722
v -0.866717 3.300501 -0.960962
v -0.917722 3.329393 -0.866717
v -0.919001 3.317149 -0.919001
v -0.916348 3.293724 -0.954185
v -0.943668 3.283207 -0.943668
v -0.917722 3.206256 -0.989854
v -0.960962 3.206256 -0.960962
v -0.866717 3.257261 -0.989854
v -0.919001 3.258539 -0.977610
v -0.954185 3.255887 -0.954185
v -0.989854 3.257261 -0.866717
v -0.960962 3.300501 -0.866717
v -0.989854 3.206256 -0.917722
v -0.977610 3.258539 -0.919001
v -0.954185 3.293724 -0.916348
v 0.866717 1.339539 0.866717
v 1.000000 1.472822 0.866717
v 0.866717 1.472822 1.000000
v 0.917722 1.349684 0.866717
v 0.960962 1.378576 0.866717
v 0.866717 1.349684 0.917722
v 0.919001 1.361929 0.919001
v 0.954185 1.385354 0.916348
v 0.943668 1.395871 0.943668
v 0.989854 1.472822 0.917722
v 0.960962 1.472822 0.960962
v 0.989854 1.421816 0.866717
v 0.977610 1.420538 0.919001
v 0.954185 1.423191 0.954185
v 0.866717 1.421816 0.989854
v 0.866717 1.378576 0.960962
v 0.917722 1.472822 0.989854
v 0.919001 1.420538 0.977610
v 0.916348 1.385354 0.954185
v 0.866717 3.339539 0.866717
v 0.866717 3.206256 1.000000
v 1.000000 3.206256 0.866717
v 0.866717 3.329393 0.917722
v 0.866717 3.300501 0.960962
v 0.917722 3.329393 0.866717
v 0.919001 3.317149 0.919001
v 0.916348 3.293724 0.954185
v 0.943668 3.283207 0.943668
v 0.917722 3.206256 0.989854
v 0.960962 3.206256 0.960962
v 0.866717 3.257261 0.989854
v 0.919001 3.258539 0.977610
v 0.954185 3.255887 0.954185
v 0.989854 3.257261 0.866717
v 0.960962 3.300501 0.866717
v 0.989854 3.206256 0.917722
v 0.977610 3.258539 0.919001
v 0.954185 3.293724 0.916348
v 0.866717 1.339539 -0.866717
v 0.866717 1.472822 -1.000000
v 1.000000 1.472822 -0.866717
v 0.866717 1.349684 -0.917722
v 0.866717 1.378576 -0.960962
v 0.917722 1.349684 -0.866717
v 0.919001 1.361929 -0.919001
v 0.916348 1.385354 -0.954185
v 0.943668 1.395871 -0.943668
v 0.917722 1.472822 -0.989854
v 0.960962 1.472822 -0.960962
v 0.866717 1.421816 -0.989854
v 0.919001 1.420538 -0.977610
v 0.954185 1.423191 -0.954185
v 0.989854 1.421816 -0.866717
v 0.960962 1.378576 -0.866717
v 0.989854 1.472822 -0.917722
v 0.977610 1.420538 -0.919001
v 0.954185 1.385354 -0.916348
v 0.866717 3.339539 -0.866717
v 1.000000 3.206256 -0.866717
v 0.866717 3.206256 -1.000000
v 0.917722 3.329393 -0.866717
v 0.960962 3.300501 -0.866717
v 0.866717 3.329393 -0.917722
v 0.919001 3.317149 -0.919001
v 0.954185 3.293724 -0.916348
v 0.943668 3.283207 -0.943668
v 0.989854 3.206256 -0.917722
v 0.960962 3.206256 -0.960962
v 0.989854 3.257261 -0.866717
v 0.977610 3.258539 -0.919001
v 0.954185 3.255887 -0.954185
v 0.866717 3.257261 -0.989854
v 0.866717 3.300501 -0.960962
v 0.917722 3.206256 -0.989854
v 0.919001 3.258539 -0.977610
v 0.916348 3.293724 -0.954185
vn -0.1004 -0.9899 0.1004
vn -0.1004 -0.1004 0.9899
vn -0.9899 -0.1004 0.1004
vn -0.0981 -0.9201 0.3792
vn -0.0919 -0.7041 0.7041
vn -0.3792 -0.9201 0.0981
vn -0.3673 -0.8545 0.3673
vn -0.3347 -0.6663 0.6663
vn -0.5774 -0.5774 0.5774
vn -0.3792 -0.0981 0.9201
vn -0.7041 -0.0919 0.7041
vn -0.0981 -0.3792 0.9201
vn -0.3673 -0.3673 0.8545
vn -0.6663 -0.3347 0.6663
vn -0.9201 -0.3792 0.0981
vn -0.7041 -0.7041 0.0919
vn -0.9201 -0.0981 0.3792
vn -0.8545 -0.3673 0.3673
vn -0.6663 -0.6663 0.3347
vn -0.1004 0.1004 0.9899
vn -0.1004 0.9899 0.1004
vn -0.9899 0.1004 0.1004
vn -0.0981 0.3792 0.9201
vn -0.0919 0.7041 0.7041
vn -0.3792 0.0981 0.9201
vn -0.3673 0.3673 0.8545
vn -0.3347 0.6663 0.6663
vn -0.5774 0.5774 0.5774
vn -0.3792 0.9201 0.0981
vn -0.7041 0.7041 0.0919
vn -0.0981 0.9201 0.3792
vn -0.3673 0.8545 0.3673
vn -0.6663 0.6663 0.3347
vn -0.9201 0.0981 0.3792
vn -0.7041 0.0919 0.7041
vn -0.9201 0.3792 0.0981
vn -0.8545 0.3673 0.3673
vn -0.6663 0.3347 0.6663
vn -0.1004 -0.9899 -0.1004
vn -0.9899 -0.1004 -0.1004
vn -0.1004 -0.1004 -0.9899
vn -0.3792 -0.9201 -0.0981
vn -0.7041 -0.7041 -0.0919
vn -0.0981 -0.9201 -0.3792
vn -0.3673 -0.8545 -0.3673
vn -0.6663 -0.6663 -0.3347
vn -0.5774 -0.5774 -0.5774
vn -0.9201 -0.0981 -0.3792
vn -0.7041 -0.0919 -0.7041
vn -0.9201 -0.3792 -0.0981
vn -0.8545 -0.3673 -0.3673
vn -0.6663 -0.3347 -0.6663
vn -0.0981 -0.3792 -0.9201
vn -0.0919 -0.7041 -0.7041
vn -0.3792 -0.0981 -0.9201
vn -0.3673 -0.3673 -0.8545
vn -0.3347 -0.6663 -0.6663
vn -0.1004 0.9899 -0.1004
vn -0.1004 0.1004 -0.9899
vn -0.9899 0.1004 -0.1004
vn -0.0981 0.9201 -0.3792
vn -0.0919 0.7041 -0.7041
vn -0.3792 0.9201 -0.0981
vn -0.3673 0.8545 -0.3673
vn -0.3347 0.6663 -0.6663
vn -0.5774 0.5774 -0.5774
vn -0.3792 0.0981 -0.9201
vn -0.7041 0.0919 -0.7041
vn -0.0981 0.3792 -0.9201
vn -0.3673 0.3673 -0.8545
vn -0.6663 0.3347 -0.6663
vn -0.9201 0.3792 -0.0981
vn -0.7041 0.7041 -0.0919
vn -0.9201 0.0981 -0.3792
vn -0.8545 0.3673 -0.3673
vn -0.6663 0.6663 -0.3347
vn 0.1004 -0.9899 0.1004
vn 0.9899 -0.1004 0.1004
vn 0.1004 -0.1004 0.9899
vn 0.3792 -0.9201 0.0981
vn 0.7041 -0.7041 0.0919
vn 0.0981 -0.9201 0.3792
vn 0.3673 -0.8545 0.3673
vn 0.6663 -0.6663 0.3347
vn 0.5774 -0.5774 0.5774
vn 0.9201 -0.0981 0.3792
vn 0.7041 -0.0919 0.7041
vn 0.9201 -0.3792 0.0981
vn 0.8545 -0.3673 0.3673
vn 0.6663 -0.3347 0.6663
vn 0.0981 -0.3792 0.9201
vn 0.0919 -0.7041 0.7041
vn 0.3792 -0.0981 0.9201
vn 0.3673 -0.3673 0.8545
vn 0.3347 -0.6663 0.6663
vn 0.1004 0.9899 0.1004
vn 0.1004 0.1004 0.9899
vn 0.9899 0.1004 0.1004
vn 0.0981 0.9201 0.3792
vn 0.0919 0.7041 0.7041
vn 0.3792 0.9201 0.0981
vn 0.3673 0.8545 0.3673
vn 0.3347 0.6663 0.6663
vn 0.5774 0.5774 0.5774
vn 0.3792 0.0981 0.9201
vn 0.7041 0.0919 0.7041
vn 0.0981 0.3792 0.9201
vn 0.3673 0.3673 0.8545
vn 0.6663 0.3347 0.6663
vn 0.9201 0.3792 0.0981
vn 0.7041 0.7041 0.0919
vn 0.9201 0.0981 0.3792
vn 0.8545 0.3673 0.3673
vn 0.6663 0.6663 0.3347
vn 0.1004 -0.9899 -0.1004
vn 0.1004 -0.1004 -0.9899
vn 0.9899 -0.1004 -0.1004
vn 0.0981 -0.9201 -0.3792
vn 0.0919 -0.7041 -0.7041
vn 0.3792 -0.9201 -0.0981
vn 0.3673 -0.8545 -0.3673
vn 0.3347 -0.6663 -0.6663
vn 0.5774 -0.5774 -0.5774
vn 0.3792 -0.0981 -0.9201
vn 0.7041 -0.0919 -0.7041
vn 0.0981 -0.3792 -0.9201
vn 0.3673 -0.3673 -0.8545
vn 0.6663 -0.3347 -0.6663
vn 0.9201 -0.3792 -0.0981
vn 0.7041 -0.7041 -0.0919
vn 0.9201 -0.0981 -0.3792
vn 0.8545 -0.3673 -0.3673
vn 0.6663 -0.6663 -0.3347
vn 0.1004 0.9899 -0.1004
vn 0.9899 0.1004 -0.1004
vn 0.1004 0.1004 -0.9899
vn 0.3792 0.9201 -0.0981
vn 0.7041 0.7041 -0.0919
vn 0.0981 0.9201 -0.3792
vn 0.3673 0.8545 -0.3673
vn 0.6663 0.6663 -0.3347
vn 0.5774 0.5774 -0.5774
vn 0.9201 0.0981 -0.3792
vn 0.7041 0.0919 -0.7041
vn 0.9201 0.3792 -0.0981
vn 0.8545 0.3673 -0.3673
vn 0.6663 0.3347 -0.6663
vn 0.0981 0.3792 -0.9201
vn 0.0919 0.7041 -0.7041
vn 0.3792 0.0981 -0.9201
vn 0.3673 0.3673 -0.8545
vn 0.3347 0.6663 -0.6663
vt 0.015736 0.647843
vt 0.015608 0.656680
vt 0.008772 0.657146
vt 0.009100 0.648036
vt 0.015117 0.665769
vt 0.008364 0.664464
vt 0.003297 0.657680
vt 0.002341 0.648701
vt 0.004292 0.663118
vt 0.265267 0.353178
vt 0.258729 0.353178
vt 0.258565 0.344232
vt 0.265267 0.344451
vt 0.253186 0.353178
vt 0.254055 0.344686
vt 0.258905 0.338213
vt 0.265267 0.337053
vt 0.255403 0.340012
vt 0.266629 0.682645
vt 0.266629 0.673958
vt 0.259957 0.673740
vt 0.260120 0.682645
vt 0.265761 0.665304
vt 0.260295 0.667747
vt 0.255467 0.674192
vt 0.254602 0.682645
vt 0.256809 0.669538
vt 0.265267 0.649748
vt 0.265267 0.658474
vt 0.258565 0.658693
vt 0.258729 0.649748
vt 0.265267 0.665872
vt 0.258905 0.664712
vt 0.254055 0.658239
vt 0.253186 0.649748
vt 0.255403 0.662913
vt 0.264171 0.019409
vt 0.257591 0.019409
vt 0.257426 0.010407
vt 0.264171 0.010627
vt 0.252013 0.019409
vt 0.252887 0.010863
vt 0.257768 0.004348
vt 0.264171 0.003181
vt 0.254244 0.006159
vt 0.266629 0.977903
vt 0.260120 0.977903
vt 0.259957 0.986808
vt 0.266629 0.986591
vt 0.254602 0.977903
vt 0.255467 0.986357
vt 0.260295 0.992801
vt 0.266629 0.993956
vt 0.256809 0.991010
vt 0.015407 0.352341
vt 0.008788 0.352173
vt 0.008438 0.343048
vt 0.015264 0.343486
vt 0.001976 0.351523
vt 0.002952 0.342503
vt 0.008038 0.335736
vt 0.014770 0.334462
vt 0.003961 0.337065
vt 0.487842 0.682645
vt 0.494351 0.682645
vt 0.494514 0.673740
vt 0.487842 0.673958
vt 0.499870 0.682645
vt 0.499005 0.674192
vt 0.494176 0.667747
vt 0.488710 0.665304
vt 0.497662 0.669538
vt 0.764429 0.353080
vt 0.764429 0.344404
vt 0.757765 0.344186
vt 0.757928 0.353080
vt 0.764429 0.337049
vt 0.758103 0.338202
vt 0.753281 0.344638
vt 0.752418 0.353080
vt 0.754622 0.339990
vt 0.264171 0.317881
vt 0.264171 0.326663
vt 0.257426 0.326883
vt 0.257591 0.317881
vt 0.264171 0.334108
vt 0.257768 0.332941
vt 0.252887 0.326426
vt 0.252013 0.317881
vt 0.254244 0.331130
vt 0.764429 0.647944
vt 0.757928 0.647944
vt 0.757765 0.656837
vt 0.764429 0.656620
vt 0.752418 0.647944
vt 0.753281 0.656386
vt 0.758103 0.662822
vt 0.764429 0.663975
vt 0.754622 0.661033
vt 0.487842 0.977903
vt 0.487842 0.986591
vt 0.494514 0.986808
vt 0.494351 0.977903
vt 0.487842 0.993956
vt 0.494176 0.992801
vt 0.499005 0.986357
vt 0.499870 0.977903
vt 0.497662 0.991010
vt 0.237135 0.647890
vt 0.243754 0.648058
vt 0.244105 0.657183
vt 0.237278 0.656745
vt 0.250566 0.648708
vt 0.249590 0.657728
vt 0.244504 0.664495
vt 0.237772 0.665769
vt 0.248581 0.663166
vt 0.516191 0.351486
vt 0.509643 0.351486
vt 0.509479 0.342527
vt 0.516191 0.342746
vt 0.504091 0.351486
vt 0.504961 0.342981
vt 0.509819 0.336498
vt 0.516191 0.335336
vt 0.506312 0.338300
vt 0.487464 0.353178
vt 0.487464 0.344451
vt 0.494166 0.344232
vt 0.494002 0.353178
vt 0.487464 0.337053
vt 0.493826 0.338213
vt 0.498676 0.344686
vt 0.499544 0.353178
vt 0.497328 0.340012
vt 0.487793 0.019409
vt 0.487793 0.010627
vt 0.494537 0.010407
vt 0.494372 0.019409
vt 0.487793 0.003181
vt 0.494195 0.004348
vt 0.499076 0.010863
vt 0.499951 0.019409
vt 0.497720 0.006159
vt 0.487464 0.649748
vt 0.494002 0.649748
vt 0.494166 0.658693
vt 0.487464 0.658474
vt 0.499544 0.649748
vt 0.498676 0.658239
vt 0.493826 0.664712
vt 0.487464 0.665872
vt 0.497328 0.662913
vt 0.516191 0.648514
vt 0.516191 0.657254
vt 0.509479 0.657473
vt 0.509643 0.648514
vt 0.516191 0.664664
vt 0.509819 0.663502
vt 0.504961 0.657019
vt 0.504091 0.648514
vt 0.506312 0.661700
vt 0.236806 0.352388
vt 0.236934 0.343552
vt 0.243770 0.343085
vt 0.243442 0.352195
vt 0.237426 0.334462
vt 0.244178 0.335767
vt 0.249245 0.342551
vt 0.250201 0.351530
vt 0.248250 0.337113
vt 0.985347 0.353080
vt 0.991848 0.353080
vt 0.992010 0.344186
vt 0.985347 0.344404
vt 0.997358 0.353080
vt 0.996495 0.344638
vt 0.991672 0.338202
vt 0.985347 0.337049
vt 0.995154 0.339990
vt 0.738732 0.351486
vt 0.738732 0.342746
vt 0.745444 0.342527
vt 0.745280 0.351486
vt 0.738732 0.335336
vt 0.745103 0.336498
vt 0.749961 0.342981
vt 0.750831 0.351486
vt 0.748610 0.338300
vt 0.487793 0.317881
vt 0.494372 0.317881
vt 0.494537 0.326883
vt 0.487793 0.326663
vt 0.499951 0.317881
vt 0.499076 0.326426
vt 0.494195 0.332941
vt 0.487793 0.334108
vt 0.497720 0.331130
vt 0.738732 0.648514
vt 0.745280 0.648514
vt 0.745444 0.657473
vt 0.738732 0.657254
vt 0.750831 0.648514
vt 0.749961 0.657019
vt 0.745103 0.663502
vt 0.738732 0.664664
vt 0.748610 0.661700
vt 0.985347 0.647944
vt 0.985347 0.656620
vt 0.992010 0.656837
vt 0.991848 0.647944
vt 0.985347 0.663975
vt 0.991672 0.662822
vt 0.996495 0.656386
vt 0.997358 0.647944
vt 0.995154 0.661033
s 1
usemtl dice
f 1/1/1 4/2/4 7/3/7 6/4/6
f 4/2/4 5/5/5 8/6/8 7/3/7
f 6/4/6 7/3/7 19/7/19 16/8/16
f 7/3/7 8/6/8 9/9/9 19/7/19
f 2/10/2 10/11/10 13/12/13 12/13/12
f 10/11/10 11/14/11 14/15/14 13/12/13
f 12/13/12 13/12/13 8/16/8 5/17/5
f 13/12/13 14/15/14 9/18/9 8/16/8
f 3/19/3 15/20/15 18/21/18 17/22/17
f 15/20/15 16/23/16 19/24/19 18/21/18
f 17/22/17 18/21/18 14/25/14 11/26/11
f 18/21/18 19/24/19 9/27/9 14/25/14
f 20/28/20 23/29/23 26/30/26 25/31/25
f 23/29/23 24/32/24 27/33/27 26/30/26
f 25/31/25 26/30/26 38/34/38 35/35/35
f 26/30/26 27/33/27 28/36/28 38/34/38
f 21/37/21 29/38/29 32/39/32 31/40/31
f 29/38/29 30/41/30 33/42/33 32/39/32
f 31/40/31 32/39/32 27/43/27 24/44/24
f 32/39/32 33/42/33 28/45/28 27/43/27
f 22/46/22 34/47/34 37/48/37 36/49/36
f 34/47/34 35/50/35 38/51/38 37/48/37
f 36/49/36 37/48/37 33/52/33 30/53/30
f 37/48/37 38/51/38 28/54/28 33/52/33
f 39/55/39 42/56/42 45/57/45 44/58/44
f 42/56/42 43/59/43 46/60/46 45/57/45
f 44/58/44 45/57/45 57/61/57 54/62/54
f 45/57/45 46/60/46 47/63/47 57/61/57
f 40/64/40 48/65/48 51/66/51 50/67/50
f 48/65/48 49/68/49 52/69/52 51/66/51
f 50/67/50 51/66/51 46/70/46 43/71/43
f 51/66/51 52/69/52 47/72/47 46/70/46
f 41/73/41 53/74/53 56/75/56 55/76/55
f 53/74/53 54/77/54 57/78/57 56/75/56
f 55/76/55 56/75/56 52/79/52 49/80/49
f 56/75/56 57/78/57 47/81/47 52/79/52
f 58/82/58 61/83/61 64/84/64 63/85/63
f 61/83/61 62/86/62 65/87/65 64/84/64
f 63/85/63 64/84/64 76/88/76 73/89/73
f 64/84/64 65/87/65 66/90/66 76/88/76
f 59/91/59 67/92/67 70/93/70 69/94/69
f 67/92/67 68/95/68 71/96/71 70/93/70
f 69/94/69 70/93/70 65/97/65 62/98/62
f 70/93/70 71/96/71 66/99/66 65/97/65
f 60/100/60 72/101/72 75/102/75 74/103/74
f 72/101/72 73/104/73 76/105/76 75/102/75
f 74/103/74 75/102/75 71/106/71 68/107/68
f 75/102/75 76/105/76 66/108/66 71/106/71
f 77/109/77 80/110/80 83/111/83 82/112/82
f 80/110/80 81/113/81 84/114/84 83/111/83
f 82/112/82 83/111/83 95/115/95 92/116/92
f 83/111/83 84/114/84 85/117/85 95/115/95
f 78/118/78 86/119/86 89/120/89 88/121/88
f 86/119/86 87/122/87 90/123/90 89/120/89
f 88/121/88 89/120/89 84/124/84 81/125/81
f 89/120/89 90/123/90 85/126/85 84/124/84
f 79/127/79 91/128/91 94/129/94 93/130/93
f 91/128/91 92/131/92 95/132/95 94/129/94
f 93/130/93 94/129/94 90/133/90 87/134/87
f 94/129/94 95/132/95 85/135/85 90/133/90
f 96/136/96 99/137/99 102/138/102 101/139/101
f 99/137/99 100/140/100 103/141/103 102/138/102
f 101/139/101 102/138/102 114/142/114 111/143/111
f 102/138/102 103/141/103 104/144/104 114/142/114
f 97/145/97 105/146/105 108/147/108 107/148/107
f 105/146/105 106/149/106 109/150/109 108/147/108
f 107/148/107 108/147/108 103/151/103 100/152/100
f 108/147/108 109/150/109 104/153/104 103/151/103
f 98/154/98 110/155/110 113/156/113 112/157/112
f 110/155/110 111/158/111 114/159/114 113/156/113
f 112/157/112 113/156/113 109/160/109 106/161/106
f 113/156/113 114/159/114 104/162/104 109/160/109
f 115/163/115 118/164/118 121/165/121 120/166/120
f 118/164/118 119/167/119 122/168/122 121/165/121
f 120/166/120 121/165/121 133/169/133 130/170/130
f 121/165/121 122/168/122 123/171/123 133/169/133
f 116/172/116 124/173/124 127/174/127 126/175/126
f 124/173/124 125/176/125 128/177/128 127/174/127
f 126/175/126 127/174/127 122/178/122 119/179/119
f 127/174/127 128/177/128 123/180/123 122/178/122
f 117/181/117 129/182/129 132/183/132 131/184/131
f 129/182/129 130/185/130 133/186/133 132/183/132
f 131/184/131 132/183/132 128/187/128 125/188/125
f 132/183/132 133/186/133 123/189/123 128/187/128
f 134/190/134 137/191/137 140/192/140 139/193/139
f 137/191/137 138/194/138 141/195/141 140/192/140
f 139/193/139 140/192/140 152/196/152 149/197/149
f 140/192/140 141/195/141 142/198/142 152/196/152
f 135/199/135 143/200/143 146/201/146 145/202/145
f 143/200/143 144/203/144 147/204/147 146/201/146
f 145/202/145 146/201/146 141/205/141 138/206/138
f 146/201/146 147/204/147 142/207/142 141/205/141
f 136/208/136 148/209/148 151/210/151 150/211/150
f 148/209/148 149/212/149 152/213/152 151/210/151
f 150/211/150 151/210/151 147/214/147 144/215/144
f 151/210/151 152/213/152 142/216/142 147/214/147
f 39/55/39 1/1/1 6/4/6 42/56/42
f 42/56/42 6/4/6 16/8/16 43/59/43
f 43/71/43 16/23/16 15/20/15 50/67/50
f 50/67/50 15/20/15 3/19/3 40/64/40
f 2/10/2 20/28/20 25/31/25 10/11/10
f 10/11/10 25/31/25 35/35/35 11/14/11
f 11/26/11 35/50/35 34/47/34 17/22/17
f 17/22/17 34/47/34 22/46/22 3/19/3
f 21/37/21 58/82/58 63/85/63 29/38/29
f 29/38/29 63/85/63 73/89/73 30/41/30
f 30/53/30 73/104/73 72/101/72 36/49/36
f 36/49/36 72/101/72 60/100/60 22/46/22
f 59/91/59 41/73/41 55/76/55 67/92/67
f 67/92/67 55/76/55 49/80/49 68/95/68
f 68/107/68 49/68/49 48/65/48 74/103/74
f 74/103/74 48/65/48 40/64/40 60/100/60
f 115/163/115 39/55/39 44/58/44 118/164/118
f 118/164/118 44/58/44 54/62/54 119/167/119
f 119/179/119 54/77/54 53/74/53 126/175/126
f 126/175/126 53/74/53 41/73/41 116/172/116
f 58/82/58 134/190/134 139/193/139 61/83/61
f 61/83/61 139/193/139 149/197/149 62/86/62
f 62/98/62 149/212/149 148/209/148 69/94/69
f 69/94/69 148/209/148 136/208/136 59/91/59
f 135/199/135 117/181/117 131/184/131 143/200/143
f 143/200/143 131/184/131 125/188/125 144/203/144
f 144/215/144 125/176/125 124/173/124 150/211/150
f 150/211/150 124/173/124 116/172/116 136/208/136
f 77/109/77 115/163/115 120/166/120 80/110/80
f 80/110/80 120/166/120 130/170/130 81/113/81
f 81/125/81 130/185/130 129/182/129 88/121/88
f 88/121/88 129/182/129 117/181/117 78/118/78
f 134/190/134 96/136/96 101/139/101 137/191/137
f 137/191/137 101/139/101 111/143/111 138/194/138
f 138/206/138 111/158/111 110/155/110 145/202/145
f 145/202/145 110/155/110 98/154/98 135/199/135
f 97/145/97 79/127/79 93/130/93 105/146/105
f 105/146/105 93/130/93 87/134/87 106/149/106
f 106/161/106 87/122/87 86/119/86 112/157/112
f 112/157/112 86/119/86 78/118/78 98/154/98
f 1/1/1 77/109/77 82/112/82 4/2/4
f 4/2/4 82/112/82 92/116/92 5/5/5
f 5/17/5 92/131/92 91/128/91 12/13/12
f 12/13/12 91/128/91 79/127/79 2/10/2
f 96/136/96 21/37/21 31/40/31 99/137/99
f 99/137/99 31/40/31 24/44/24 100/140/100
f 100/152/100 24/32/24 23/29/23 107/148/107
f 107/148/107 23/29/23 20/28/20 97/145/97
f 39/55/39 115/163/115 77/109/77 1/1/1
f 3/19/3 22/46/22 60/100/60 40/64/40
f 79/127/79 97/145/97 20/28/20 2/10/2
f 134/190/134 58/82/58 21/37/21 96/136/96
f 41/73/41 59/91/59 136/208/136 116/172/116
f 117/181/117 135/199/135 98/154/98 78/118/78
