# Blender 5.2.1 LTS
# www.blender.org
mtllib dice tray.mtl
o dice_tray
v 0.000000 1.792606 -1.000000
v 0.195090 1.792606 -0.980785
v 0.382683 1.792606 -0.923880
v 0.555570 1.792606 -0.831470
v 0.707107 1.792606 -0.707107
v 0.831470 1.792606 -0.555570
v 0.923880 1.792606 -0.382683
v 0.980785 1.792606 -0.195090
v 1.000000 1.792606 0.000000
v 0.980785 1.792606 0.195090
v 0.923880 1.792606 0.382683
v 0.831470 1.792606 0.555570
v 0.707107 1.792606 0.707107
v 0.555570 1.792606 0.831470
v 0.382683 1.792606 0.923880
v 0.195090 1.792606 0.980785
v 0.000000 1.792606 1.000000
v -0.195090 1.792606 0.980785
v -0.382683 1.792606 0.923880
v -0.555570 1.792606 0.831470
v -0.707107 1.792606 0.707107
v -0.831470 1.792606 0.555570
v -0.923880 1.792606 0.382683
v -0.980785 1.792606 0.195090
v -1.000000 1.792606 0.000000
v -0.980785 1.792606 -0.195090
v -0.923880 1.792606 -0.382683
v -0.831470 1.792606 -0.555570
v -0.707107 1.792606 -0.707107
v -0.555570 1.792606 -0.831470
v -0.382683 1.792606 -0.923880
v -0.195090 1.792606 -0.980785
v 0.000000 1.260217 -0.914929
v 0.000000 1.344878 -1.000000
v 0.000000 1.264360 -0.941217
v 0.000000 1.276385 -0.964932
v 0.000000 1.295115 -0.983753
v 0.000000 1.318716 -0.995836
v 0.178493 1.260217 -0.897349
v 0.195090 1.344878 -0.980785
v 0.183622 1.264360 -0.923132
v 0.188249 1.276385 -0.946391
v 0.191921 1.295115 -0.964850
v 0.194278 1.318716 -0.976702
v 0.350128 1.260217 -0.845284
v 0.382683 1.344878 -0.923880
v 0.360188 1.264360 -0.869571
v 0.369264 1.276385 -0.891481
v 0.376466 1.295115 -0.908869
v 0.381090 1.318716 -0.920033
v 0.508307 1.260217 -0.760735
v 0.555570 1.344878 -0.831470
v 0.522912 1.264360 -0.782593
v 0.536088 1.276385 -0.802312
v 0.546544 1.295115 -0.817961
v 0.553257 1.318716 -0.828008
v 0.646952 1.260217 -0.646952
v 0.707107 1.344878 -0.707107
v 0.665541 1.264360 -0.665541
v 0.682310 1.276385 -0.682310
v 0.695618 1.295115 -0.695618
v 0.704163 1.318716 -0.704163
v 0.760735 1.260217 -0.508307
v 0.831470 1.344878 -0.555570
v 0.782593 1.264360 -0.522912
v 0.802312 1.276385 -0.536088
v 0.817961 1.295115 -0.546544
v 0.828008 1.318716 -0.553257
v 0.845284 1.260217 -0.350128
v 0.923880 1.344878 -0.382683
v 0.869571 1.264360 -0.360188
v 0.891481 1.276385 -0.369264
v 0.908869 1.295115 -0.376466
v 0.920033 1.318716 -0.381090
v 0.897349 1.260217 -0.178493
v 0.980785 1.344878 -0.195090
v 0.923132 1.264360 -0.183622
v 0.946391 1.276385 -0.188249
v 0.964850 1.295115 -0.191921
v 0.976702 1.318716 -0.194278
v 0.914929 1.260217 0.000000
v 1.000000 1.344878 0.000000
v 0.941217 1.264360 0.000000
v 0.964932 1.276385 0.000000
v 0.983753 1.295115 0.000000
v 0.995836 1.318716 0.000000
v 0.897349 1.260217 0.178493
v 0.980785 1.344878 0.195090
v 0.923132 1.264360 0.183622
v 0.946391 1.276385 0.188249
v 0.964850 1.295115 0.191921
v 0.976702 1.318716 0.194278
v 0.845284 1.260217 0.350128
v 0.923880 1.344878 0.382683
v 0.869571 1.264360 0.360188
v 0.891481 1.276385 0.369264
v 0.908869 1.295115 0.376466
v 0.920033 1.318716 0.381090
v 0.760735 1.260217 0.508307
v 0.831470 1.344878 0.555570
v 0.782593 1.264360 0.522912
v 0.802312 1.276385 0.536088
v 0.817961 1.295115 0.546544
v 0.828008 1.318716 0.553257
v 0.646952 1.260217 0.646952
v 0.707107 1.344878 0.707107
v 0.665541 1.264360 0.665541
v 0.682310 1.276385 0.682310
v 0.695618 1.295115 0.695618
v 0.704163 1.318716 0.704163
v 0.508307 1.260217 0.760735
v 0.555570 1.344878 0.831470
v 0.522912 1.264360 0.782593
v 0.536088 1.276385 0.802312
v 0.546544 1.295115 0.817961
v 0.553257 1.318716 0.828008
v 0.350128 1.260217 0.845284
v 0.382683 1.344878 0.923880
v 0.360188 1.264360 0.869571
v 0.369264 1.276385 0.891481
v 0.376466 1.295115 0.908869
v 0.381090 1.318716 0.920033
v 0.178493 1.260217 0.897349
v 0.195090 1.344878 0.980785
v 0.183622 1.264360 0.923132
v 0.188249 1.276385 0.946391
v 0.191921 1.295115 0.964850
v 0.194278 1.318716 0.976702
v 0.000000 1.260217 0.914929
v 0.000000 1.344878 1.000000
v 0.000000 1.264360 0.941217
v 0.000000 1.276385 0.964932
v 0.000000 1.295115 0.983753
v 0.000000 1.318716 0.995836
v -0.178493 1.260217 0.897349
v -0.195090 1.344878 0.980785
v -0.183622 1.264360 0.923132
v -0.188249 1.276385 0.946391
v -0.191921 1.295115 0.964850
v -0.194278 1.318716 0.976702
v -0.350128 1.260217 0.845284
v -0.382683 1.344878 0.923880
v -0.360188 1.264360 0.869571
v -0.369264 1.276385 0.891481
v -0.376466 1.295115 0.908869
v -0.381090 1.318716 0.920033
v -0.508307 1.260217 0.760735
v -0.555570 1.344878 0.831470
v -0.522912 1.264360 0.782593
v -0.536088 1.276385 0.802312
v -0.546544 1.295115 0.817961
v -0.553257 1.318716 0.828008
v -0.646952 1.260217 0.646952
v -0.707107 1.344878 0.707107
v -0.665541 1.264360 0.665541
v -0.682310 1.276385 0.682310
v -0.695618 1.295115 0.695618
v -0.704163 1.318716 0.704163
v -0.760735 1.260217 0.508307
v -0.831470 1.344878 0.555570
v -0.782593 1.264360 0.522912
v -0.802312 1.276385 0.536088
v -0.817961 1.295115 0.546544
v -0.828008 1.318716 0.553257
v -0.845284 1.260217 0.350128
v -0.923880 1.344878 0.382683
v -0.869571 1.264360 0.360188
v -0.891481 1.276385 0.369264
v -0.908869 1.295115 0.376466
v -0.920033 1.318716 0.381090
v -0.897349 1.260217 0.178493
v -0.980785 1.344878 0.195090
v -0.923132 1.264360 0.183622
v -0.946391 1.276385 0.188249
v -0.964850 1.295115 0.191921
v -0.976702 1.318716 0.194278
v -0.914929 1.260217 0.000000
v -1.000000 1.344878 0.000000
v -0.941217 1.264360 0.000000
v -0.964932 1.276385 0.000000
v -0.983753 1.295115 0.000000
v -0.995836 1.318716 0.000000
v -0.897349 1.260217 -0.178493
v -0.980785 1.344878 -0.195090
v -0.923132 1.264360 -0.183622
v -0.946391 1.276385 -0.188249
v -0.964850 1.295115 -0.191921
v -0.976702 1.318716 -0.194278
v -0.845284 1.260217 -0.350128
v -0.923880 1.344878 -0.382683
v -0.869571 1.264360 -0.360188
v -0.891481 1.276385 -0.369264
v -0.908869 1.295115 -0.376466
v -0.920033 1.318716 -0.381090
v -0.760735 1.260217 -0.508307
v -0.831470 1.344878 -0.555570
v -0.782593 1.264360 -0.522912
v -0.802312 1.276385 -0.536088
v -0.817961 1.295115 -0.546544
v -0.828008 1.318716 -0.553257
v -0.646952 1.260217 -0.646952
v -0.707107 1.344878 -0.707107
v -0.665541 1.264360 -0.665541
v -0.682310 1.276385 -0.682310
v -0.695618 1.295115 -0.695618
v -0.704163 1.318716 -0.704163
v -0.508307 1.260217 -0.760735
v -0.555570 1.344878 -0.831470
v -0.522912 1.264360 -0.782593
v -0.536088 1.276385 -0.802312
v -0.546544 1.295115 -0.817961
v -0.553257 1.318716 -0.828008
v -0.350128 1.260217 -0.845284
v -0.382683 1.344878 -0.923880
v -0.360188 1.264360 -0.869571
v -0.369264 1.276385 -0.891481
v -0.376466 1.295115 -0.908869
v -0.381090 1.318716 -0.920033
v -0.178493 1.260217 -0.897349
v -0.195090 1.344878 -0.980785
v -0.183622 1.264360 -0.923132
v -0.188249 1.276385 -0.946391
v -0.191921 1.295115 -0.964850
v -0.194278 1.318716 -0.976702
v 0.000000 1.792606 -0.950000
v 0.185336 1.792606 -0.931746
v 0.363549 1.792606 -0.877686
v 0.527792 1.792606 -0.789896
v 0.671751 1.792606 -0.671751
v 0.789896 1.792606 -0.527792
v 0.877686 1.792606 -0.363549
v 0.931746 1.792606 -0.185336
v 0.950000 1.792606 0.000000
v 0.931746 1.792606 0.185336
v 0.877686 1.792606 0.363549
v 0.789896 1.792606 0.527792
v 0.671751 1.792606 0.671751
v 0.527792 1.792606 0.789896
v 0.363549 1.792606 0.877686
v 0.185336 1.792606 0.931746
v 0.000000 1.792606 0.950000
v -0.185336 1.792606 0.931746
v -0.363549 1.792606 0.877686
v -0.527792 1.792606 0.789896
v -0.671751 1.792606 0.671751
v -0.789896 1.792606 0.527792
v -0.877686 1.792606 0.363549
v -0.931746 1.792606 0.185336
v -0.950000 1.792606 0.000000
v -0.931746 1.792606 -0.185336
v -0.877686 1.792606 -0.363549
v -0.789896 1.792606 -0.527792
v -0.671751 1.792606 -0.671751
v -0.527792 1.792606 -0.789896
v -0.363549 1.792606 -0.877686
v -0.185336 1.792606 -0.931746
v 0.000000 1.310044 -0.910782
v 0.000000 1.348801 -0.950154
v 0.000000 1.311790 -0.925392
v 0.000000 1.316669 -0.935315
v 0.000000 1.324362 -0.943199
v 0.000000 1.334089 -0.948258
v 0.177685 1.310044 -0.893282
v 0.185366 1.348801 -0.931897
v 0.180535 1.311790 -0.907611
v 0.182471 1.316669 -0.917343
v 0.184009 1.324362 -0.925076
v 0.184996 1.334089 -0.930038
v 0.348541 1.310044 -0.841453
v 0.363608 1.348801 -0.877828
v 0.354133 1.311790 -0.854951
v 0.357930 1.316669 -0.864118
v 0.360947 1.324362 -0.871402
v 0.362883 1.334089 -0.876076
v 0.506003 1.310044 -0.757288
v 0.527877 1.348801 -0.790024
v 0.514121 1.311790 -0.769436
v 0.519633 1.316669 -0.777686
v 0.524013 1.324362 -0.784241
v 0.526824 1.334089 -0.788448
v 0.644020 1.310044 -0.644020
v 0.671860 1.348801 -0.671860
v 0.654351 1.311790 -0.654351
v 0.661367 1.316669 -0.661367
v 0.666942 1.324362 -0.666942
v 0.670520 1.334089 -0.670520
v 0.757287 1.310044 -0.506004
v 0.790024 1.348801 -0.527877
v 0.769436 1.311790 -0.514121
v 0.777686 1.316669 -0.519633
v 0.784241 1.324362 -0.524013
v 0.788448 1.334089 -0.526824
v 0.841453 1.310044 -0.348541
v 0.877828 1.348801 -0.363608
v 0.854951 1.311790 -0.354133
v 0.864118 1.316669 -0.357930
v 0.871402 1.324362 -0.360947
v 0.876076 1.334089 -0.362883
v 0.893282 1.310044 -0.177685
v 0.931897 1.348801 -0.185366
v 0.907611 1.311790 -0.180535
v 0.917343 1.316669 -0.182471
v 0.925076 1.324362 -0.184009
v 0.930038 1.334089 -0.184996
v 0.910782 1.310044 0.000000
v 0.950154 1.348801 0.000000
v 0.925392 1.311790 0.000000
v 0.935315 1.316669 0.000000
v 0.943199 1.324362 -0.000000
v 0.948258 1.334089 -0.000000
v 0.893282 1.310044 0.177685
v 0.931897 1.348801 0.185366
v 0.907611 1.311790 0.180535
v 0.917343 1.316669 0.182471
v 0.925076 1.324362 0.184009
v 0.930038 1.334089 0.184996
v 0.841453 1.310044 0.348541
v 0.877828 1.348801 0.363608
v 0.854951 1.311790 0.354133
v 0.864118 1.316669 0.357930
v 0.871402 1.324362 0.360947
v 0.876076 1.334089 0.362883
v 0.757287 1.310044 0.506004
v 0.790024 1.348801 0.527877
v 0.769436 1.311790 0.514121
v 0.777686 1.316669 0.519633
v 0.784241 1.324362 0.524013
v 0.788448 1.334089 0.526824
v 0.644020 1.310044 0.644020
v 0.671860 1.348801 0.671860
v 0.654351 1.311790 0.654351
v 0.661367 1.316669 0.661367
v 0.666942 1.324362 0.666942
v 0.670520 1.334089 0.670520
v 0.506003 1.310044 0.757288
v 0.527877 1.348801 0.790024
v 0.514121 1.311790 0.769436
v 0.519633 1.316669 0.777686
v 0.524013 1.324362 0.784241
v 0.526824 1.334089 0.788448
v 0.348541 1.310044 0.841453
v 0.363608 1.348801 0.877828
v 0.354132 1.311790 0.854951
v 0.357930 1.316669 0.864118
v 0.360947 1.324362 0.871402
v 0.362883 1.334089 0.876076
v 0.177685 1.310044 0.893282
v 0.185366 1.348801 0.931897
v 0.180535 1.311790 0.907611
v 0.182471 1.316669 0.917343
v 0.184009 1.324362 0.925076
v 0.184996 1.334089 0.930038
v -0.000000 1.310044 0.910782
v -0.000000 1.348801 0.950154
v -0.000000 1.311790 0.925392
v 0.000000 1.316669 0.935315
v 0.000000 1.324362 0.943199
v -0.000000 1.334089 0.948258
v -0.177685 1.310044 0.893282
v -0.185366 1.348801 0.931897
v -0.180535 1.311790 0.907611
v -0.182471 1.316669 0.917343
v -0.184009 1.324362 0.925076
v -0.184996 1.334089 0.930038
v -0.348541 1.310044 0.841453
v -0.363608 1.348801 0.877828
v -0.354133 1.311790 0.854951
v -0.357930 1.316669 0.864118
v -0.360947 1.324362 0.871402
v -0.362883 1.334089 0.876076
v -0.506003 1.310044 0.757288
v -0.527877 1.348801 0.790024
v -0.514121 1.311790 0.769436
v -0.519633 1.316669 0.777686
v -0.524013 1.324362 0.784241
v -0.526824 1.334089 0.788448
v -0.644020 1.310044 0.644020
v -0.671860 1.348801 0.671860
v -0.654351 1.311790 0.654351
v -0.661367 1.316669 0.661367
v -0.666942 1.324362 0.666942
v -0.670520 1.334089 0.670520
v -0.757287 1.310044 0.506004
v -0.790024 1.348801 0.527877
v -0.769436 1.311790 0.514121
v -0.777686 1.316669 0.519633
v -0.784241 1.324362 0.524013
v -0.788448 1.334089 0.526824
v -0.841453 1.310044 0.348541
v -0.877828 1.348801 0.363608
v -0.854951 1.311790 0.354133
v -0.864118 1.316669 0.357930
v -0.871402 1.324362 0.360947
v -0.876076 1.334089 0.362883
v -0.893282 1.310044 0.177685
v -0.931897 1.348801 0.185366
v -0.907611 1.311790 0.180535
v -0.917343 1.316669 0.182471
v -0.925076 1.324362 0.184009
v -0.930038 1.334089 0.184996
v -0.910782 1.310044 0.000000
v -0.950154 1.348801 0.000000
v -0.925392 1.311790 0.000000
v -0.935315 1.316669 -0.000000
v -0.943199 1.324362 0.000000
v -0.948258 1.334089 0.000000
v -0.893282 1.310044 -0.177685
v -0.931897 1.348801 -0.185366
v -0.907611 1.311790 -0.180535
v -0.917343 1.316669 -0.182471
v -0.925076 1.324362 -0.184009
v -0.930038 1.334089 -0.184996
v -0.841453 1.310044 -0.348541
v -0.877828 1.348801 -0.363608
v -0.854951 1.311790 -0.354133
v -0.864118 1.316669 -0.357930
v -0.871402 1.324362 -0.360947
v -0.876076 1.334089 -0.362883
v -0.757287 1.310044 -0.506004
v -0.790024 1.348801 -0.527877
v -0.769436 1.311790 -0.514121
v -0.777686 1.316669 -0.519633
v -0.784241 1.324362 -0.524013
v -0.788448 1.334089 -0.526824
v -0.644020 1.310044 -0.644020
v -0.671860 1.348801 -0.671860
v -0.654351 1.311790 -0.654351
v -0.661367 1.316669 -0.661367
v -0.666942 1.324362 -0.666942
v -0.670520 1.334089 -0.670520
v -0.506003 1.310044 -0.757288
v -0.527877 1.348801 -0.790024
v -0.514121 1.311790 -0.769436
v -0.519633 1.316669 -0.777686
v -0.524013 1.324362 -0.784241
v -0.526824 1.334089 -0.788448
v -0.348541 1.310044 -0.841453
v -0.363608 1.348801 -0.877828
v -0.354132 1.311790 -0.854951
v -0.357930 1.316669 -0.864118
v -0.360947 1.324362 -0.871402
v -0.362883 1.334089 -0.876076
v -0.177685 1.310044 -0.893282
v -0.185366 1.348801 -0.931897
v -0.180535 1.311790 -0.907611
v -0.182471 1.316669 -0.917343
v -0.184009 1.324362 -0.925076
v -0.184996 1.334089 -0.930038
vn -0.0000 0.6857 -0.7279
vn 0.1420 0.6857 -0.7139
vn 0.2785 0.6857 -0.6725
vn 0.4044 0.6857 -0.6052
vn 0.5147 0.6857 -0.5147
vn 0.6052 0.6857 -0.4044
vn 0.6725 0.6857 -0.2785
vn 0.7139 0.6857 -0.1420
vn 0.7279 0.6857 -0.0000
vn 0.7139 0.6857 0.1420
vn 0.6725 0.6857 0.2785
vn 0.6052 0.6857 0.4044
vn 0.5147 0.6857 0.5147
vn 0.4044 0.6857 0.6052
vn 0.2785 0.6857 0.6725
vn 0.1420 0.6857 0.7139
vn -0.0000 0.6857 0.7279
vn -0.1420 0.6857 0.7139
vn -0.2785 0.6857 0.6725
vn -0.4044 0.6857 0.6052
vn -0.5147 0.6857 0.5147
vn -0.6052 0.6857 0.4044
vn -0.6725 0.6857 0.2785
vn -0.7139 0.6857 0.1420
vn -0.7279 0.6857 -0.0000
vn -0.7139 0.6857 -0.1420
vn -0.6725 0.6857 -0.2785
vn -0.6052 0.6857 -0.4044
vn -0.5147 0.6857 -0.5147
vn -0.4044 0.6857 -0.6052
vn -0.2785 0.6857 -0.6725
vn -0.1420 0.6857 -0.7139
vn -0.0000 -0.9966 -0.0829
vn -0.0000 -0.0784 -0.9969
vn -0.0000 -0.9486 -0.3165
vn -0.0000 -0.8057 -0.5924
vn -0.0000 -0.5849 -0.8111
vn -0.0000 -0.3074 -0.9516
vn 0.0162 -0.9966 -0.0813
vn 0.1945 -0.0784 -0.9778
vn 0.0617 -0.9486 -0.3104
vn 0.1156 -0.8057 -0.5810
vn 0.1582 -0.5849 -0.7955
vn 0.1856 -0.3075 -0.9333
vn 0.0317 -0.9966 -0.0766
vn 0.3815 -0.0784 -0.9210
vn 0.1211 -0.9486 -0.2924
vn 0.2267 -0.8057 -0.5473
vn 0.3104 -0.5849 -0.7493
vn 0.3641 -0.3075 -0.8791
vn 0.0461 -0.9966 -0.0690
vn 0.5539 -0.0784 -0.8289
vn 0.1758 -0.9486 -0.2632
vn 0.3291 -0.8057 -0.4925
vn 0.4506 -0.5849 -0.6744
vn 0.5287 -0.3075 -0.7912
vn 0.0586 -0.9966 -0.0586
vn 0.7049 -0.0784 -0.7049
vn 0.2238 -0.9486 -0.2238
vn 0.4189 -0.8057 -0.4189
vn 0.5735 -0.5849 -0.5735
vn 0.6729 -0.3075 -0.6729
vn 0.0690 -0.9966 -0.0461
vn 0.8289 -0.0784 -0.5539
vn 0.2632 -0.9486 -0.1758
vn 0.4925 -0.8057 -0.3291
vn 0.6744 -0.5849 -0.4506
vn 0.7912 -0.3075 -0.5287
vn 0.0766 -0.9966 -0.0317
vn 0.9210 -0.0784 -0.3815
vn 0.2924 -0.9486 -0.1211
vn 0.5473 -0.8057 -0.2267
vn 0.7493 -0.5849 -0.3104
vn 0.8791 -0.3075 -0.3641
vn 0.0813 -0.9966 -0.0162
vn 0.9778 -0.0784 -0.1945
vn 0.3104 -0.9486 -0.0617
vn 0.5810 -0.8057 -0.1156
vn 0.7955 -0.5849 -0.1582
vn 0.9333 -0.3075 -0.1856
vn 0.0829 -0.9966 -0.0000
vn 0.9969 -0.0784 -0.0000
vn 0.3165 -0.9486 -0.0000
vn 0.5924 -0.8057 -0.0000
vn 0.8111 -0.5849 -0.0000
vn 0.9516 -0.3075 -0.0000
vn 0.0813 -0.9966 0.0162
vn 0.9778 -0.0784 0.1945
vn 0.3104 -0.9486 0.0617
vn 0.5810 -0.8057 0.1156
vn 0.7955 -0.5849 0.1582
vn 0.9333 -0.3075 0.1856
vn 0.0766 -0.9966 0.0317
vn 0.9210 -0.0784 0.3815
vn 0.2924 -0.9486 0.1211
vn 0.5473 -0.8057 0.2267
vn 0.7493 -0.5849 0.3104
vn 0.8791 -0.3075 0.3641
vn 0.0690 -0.9966 0.0461
vn 0.8289 -0.0784 0.5539
vn 0.2632 -0.9486 0.1758
vn 0.4925 -0.8057 0.3291
vn 0.6744 -0.5849 0.4506
vn 0.7912 -0.3075 0.5287
vn 0.0586 -0.9966 0.0586
vn 0.7049 -0.0784 0.7049
vn 0.2238 -0.9486 0.2238
vn 0.4189 -0.8057 0.4189
vn 0.5735 -0.5849 0.5735
vn 0.6729 -0.3075 0.6729
vn 0.0461 -0.9966 0.0690
vn 0.5539 -0.0784 0.8289
vn 0.1758 -0.9486 0.2632
vn 0.3291 -0.8057 0.4925
vn 0.4506 -0.5849 0.6744
vn 0.5287 -0.3075 0.7912
vn 0.0317 -0.9966 0.0766
vn 0.3815 -0.0784 0.9210
vn 0.1211 -0.9486 0.2924
vn 0.2267 -0.8057 0.5473
vn 0.3104 -0.5849 0.7493
vn 0.3641 -0.3075 0.8791
vn 0.0162 -0.9966 0.0813
vn 0.1945 -0.0784 0.9778
vn 0.0617 -0.9486 0.3104
vn 0.1156 -0.8057 0.5810
vn 0.1582 -0.5849 0.7955
vn 0.1856 -0.3075 0.9333
vn -0.0000 -0.9966 0.0829
vn -0.0000 -0.0784 0.9969
vn -0.0000 -0.9486 0.3165
vn -0.0000 -0.8057 0.5924
vn -0.0000 -0.5849 0.8111
vn -0.0000 -0.3074 0.9516
vn -0.0162 -0.9966 0.0813
vn -0.1945 -0.0784 0.9778
vn -0.0617 -0.9486 0.3104
vn -0.1156 -0.8057 0.5810
vn -0.1582 -0.5849 0.7955
vn -0.1856 -0.3075 0.9333
vn -0.0317 -0.9966 0.0766
vn -0.3815 -0.0784 0.9210
vn -0.1211 -0.9486 0.2924
vn -0.2267 -0.8057 0.5473
vn -0.3104 -0.5849 0.7493
vn -0.3641 -0.3075 0.8791
vn -0.0461 -0.9966 0.0690
vn -0.5539 -0.0784 0.8289
vn -0.1758 -0.9486 0.2632
vn -0.3291 -0.8057 0.4925
vn -0.4506 -0.5849 0.6744
vn -0.5287 -0.3075 0.7912
vn -0.0586 -0.9966 0.0586
vn -0.7049 -0.0784 0.7049
vn -0.2238 -0.9486 0.2238
vn -0.4189 -0.8057 0.4189
vn -0.5735 -0.5849 0.5735
vn -0.6729 -0.3075 0.6729
vn -0.0690 -0.9966 0.0461
vn -0.8289 -0.0784 0.5539
vn -0.2632 -0.9486 0.1758
vn -0.4925 -0.8057 0.3291
vn -0.6744 -0.5849 0.4506
vn -0.7912 -0.3075 0.5287
vn -0.0766 -0.9966 0.0317
vn -0.9210 -0.0784 0.3815
vn -0.2924 -0.9486 0.1211
vn -0.5473 -0.8057 0.2267
vn -0.7493 -0.5849 0.3104
vn -0.8791 -0.3075 0.3641
vn -0.0813 -0.9966 0.0162
vn -0.9778 -0.0784 0.1945
vn -0.3104 -0.9486 0.0617
vn -0.5810 -0.8057 0.1156
vn -0.7955 -0.5849 0.1582
vn -0.9333 -0.3075 0.1856
vn -0.0829 -0.9966 -0.0000
vn -0.9969 -0.0784 -0.0000
vn -0.3165 -0.9486 -0.0000
vn -0.5924 -0.8057 -0.0000
vn -0.8111 -0.5849 -0.0000
vn -0.9516 -0.3075 -0.0000
vn -0.0813 -0.9966 -0.0162
vn -0.9778 -0.0784 -0.1945
vn -0.3104 -0.9486 -0.0617
vn -0.5810 -0.8057 -0.1156
vn -0.7955 -0.5849 -0.1582
vn -0.9333 -0.3075 -0.1856
vn -0.0766 -0.9966 -0.0317
vn -0.9210 -0.0784 -0.3815
vn -0.2924 -0.9486 -0.1211
vn -0.5473 -0.8057 -0.2267
vn -0.7493 -0.5849 -0.3104
vn -0.8791 -0.3075 -0.3641
vn -0.0690 -0.9966 -0.0461
vn -0.8289 -0.0784 -0.5539
vn -0.2632 -0.9486 -0.1758
vn -0.4925 -0.8057 -0.3291
vn -0.6744 -0.5849 -0.4506
vn -0.7912 -0.3075 -0.5287
vn -0.0586 -0.9966 -0.0586
vn -0.7049 -0.0784 -0.7049
vn -0.2238 -0.9486 -0.2238
vn -0.4189 -0.8057 -0.4189
vn -0.5735 -0.5849 -0.5735
vn -0.6729 -0.3075 -0.6729
vn -0.0461 -0.9966 -0.0690
vn -0.5539 -0.0784 -0.8289
vn -0.1758 -0.9486 -0.2632
vn -0.3291 -0.8057 -0.4925
vn -0.4506 -0.5849 -0.6744
vn -0.5287 -0.3075 -0.7912
vn -0.0317 -0.9966 -0.0766
vn -0.3815 -0.0784 -0.9210
vn -0.1211 -0.9486 -0.2924
vn -0.2267 -0.8057 -0.5473
vn -0.3104 -0.5849 -0.7493
vn -0.3641 -0.3075 -0.8791
vn -0.0162 -0.9966 -0.0813
vn -0.1945 -0.0784 -0.9778
vn -0.0617 -0.9486 -0.3104
vn -0.1156 -0.8057 -0.5810
vn -0.1582 -0.5849 -0.7955
vn -0.1856 -0.3075 -0.9333
vn -0.0000 0.7297 0.6837
vn -0.1334 0.7297 0.6706
vn -0.2617 0.7297 0.6317
vn -0.3799 0.7297 0.5685
vn -0.4835 0.7297 0.4835
vn -0.5685 0.7297 0.3799
vn -0.6317 0.7297 0.2617
vn -0.6706 0.7297 0.1334
vn -0.6837 0.7297 -0.0000
vn -0.6706 0.7297 -0.1334
vn -0.6317 0.7297 -0.2617
vn -0.5685 0.7297 -0.3799
vn -0.4835 0.7297 -0.4835
vn -0.3799 0.7297 -0.5685
vn -0.2617 0.7297 -0.6317
vn -0.1334 0.7297 -0.6706
vn -0.0000 0.7297 -0.6837
vn 0.1334 0.7297 -0.6706
vn 0.2617 0.7297 -0.6317
vn 0.3799 0.7297 -0.5685
vn 0.4835 0.7297 -0.4835
vn 0.5685 0.7297 -0.3799
vn 0.6317 0.7297 -0.2617
vn 0.6706 0.7297 -0.1334
vn 0.6837 0.7297 -0.0000
vn 0.6706 0.7297 0.1334
vn 0.6317 0.7297 0.2617
vn 0.5685 0.7297 0.3799
vn 0.4835 0.7297 0.4835
vn 0.3799 0.7297 0.5685
vn 0.2617 0.7297 0.6317
vn 0.1334 0.7297 0.6706
vn -0.0000 0.9980 0.0631
vn -0.0000 0.0636 0.9980
vn -0.0000 0.9559 0.2936
vn -0.0000 0.8121 0.5835
vn -0.0000 0.5914 0.8064
vn -0.0000 0.2962 0.9551
vn -0.0123 0.9980 0.0619
vn -0.1947 0.0636 0.9788
vn -0.0573 0.9559 0.2880
vn -0.1138 0.8121 0.5723
vn -0.1573 0.5914 0.7909
vn -0.1863 0.2962 0.9368
vn -0.0242 0.9980 0.0583
vn -0.3819 0.0636 0.9220
vn -0.1124 0.9559 0.2713
vn -0.2233 0.8121 0.5391
vn -0.3086 0.5914 0.7450
vn -0.3655 0.2962 0.8824
vn -0.0351 0.9980 0.0525
vn -0.5544 0.0636 0.8298
vn -0.1631 0.9559 0.2441
vn -0.3242 0.8121 0.4852
vn -0.4480 0.5914 0.6705
vn -0.5306 0.2962 0.7942
vn -0.0446 0.9980 0.0446
vn -0.7057 0.0636 0.7057
vn -0.2076 0.9559 0.2076
vn -0.4126 0.8121 0.4126
vn -0.5702 0.5914 0.5702
vn -0.6754 0.2962 0.6754
vn -0.0525 0.9980 0.0351
vn -0.8298 0.0636 0.5544
vn -0.2441 0.9559 0.1631
vn -0.4852 0.8121 0.3242
vn -0.6705 0.5914 0.4480
vn -0.7942 0.2962 0.5306
vn -0.0583 0.9980 0.0242
vn -0.9220 0.0636 0.3819
vn -0.2713 0.9559 0.1124
vn -0.5391 0.8121 0.2233
vn -0.7450 0.5914 0.3086
vn -0.8824 0.2962 0.3655
vn -0.0619 0.9980 0.0123
vn -0.9788 0.0636 0.1947
vn -0.2880 0.9559 0.0573
vn -0.5723 0.8121 0.1138
vn -0.7909 0.5914 0.1573
vn -0.9368 0.2962 0.1863
vn -0.0631 0.9980 -0.0000
vn -0.9980 0.0636 -0.0000
vn -0.2936 0.9559 -0.0000
vn -0.5835 0.8121 -0.0000
vn -0.8064 0.5914 -0.0000
vn -0.9551 0.2962 -0.0000
vn -0.0619 0.9980 -0.0123
vn -0.9788 0.0636 -0.1947
vn -0.2880 0.9559 -0.0573
vn -0.5723 0.8121 -0.1138
vn -0.7909 0.5914 -0.1573
vn -0.9368 0.2962 -0.1863
vn -0.0583 0.9980 -0.0242
vn -0.9220 0.0636 -0.3819
vn -0.2713 0.9559 -0.1124
vn -0.5391 0.8121 -0.2233
vn -0.7450 0.5914 -0.3086
vn -0.8824 0.2962 -0.3655
vn -0.0525 0.9980 -0.0351
vn -0.8298 0.0636 -0.5544
vn -0.2441 0.9559 -0.1631
vn -0.4852 0.8121 -0.3242
vn -0.6705 0.5914 -0.4480
vn -0.7942 0.2962 -0.5306
vn -0.0446 0.9980 -0.0446
vn -0.7057 0.0636 -0.7057
vn -0.2076 0.9559 -0.2076
vn -0.4126 0.8121 -0.4126
vn -0.5702 0.5914 -0.5702
vn -0.6754 0.2962 -0.6754
vn -0.0351 0.9980 -0.0525
vn -0.5544 0.0636 -0.8298
vn -0.1631 0.9559 -0.2441
vn -0.3242 0.8121 -0.4852
vn -0.4480 0.5914 -0.6705
vn -0.5306 0.2962 -0.7942
vn -0.0242 0.9980 -0.0583
vn -0.3819 0.0636 -0.9220
vn -0.1124 0.9559 -0.2713
vn -0.2233 0.8121 -0.5391
vn -0.3086 0.5914 -0.7450
vn -0.3655 0.2962 -0.8824
vn -0.0123 0.9980 -0.0619
vn -0.1947 0.0636 -0.9788
vn -0.0573 0.9559 -0.2880
vn -0.1138 0.8121 -0.5723
vn -0.1573 0.5914 -0.7909
vn -0.1863 0.2962 -0.9368
vn -0.0000 0.9980 -0.0631
vn -0.0000 0.0636 -0.9980
vn -0.0000 0.9559 -0.2936
vn -0.0000 0.8121 -0.5835
vn -0.0000 0.5914 -0.8064
vn -0.0000 0.2962 -0.9551
vn 0.0123 0.9980 -0.0619
vn 0.1947 0.0636 -0.9788
vn 0.0573 0.9559 -0.2880
vn 0.1138 0.8121 -0.5723
vn 0.1573 0.5914 -0.7909
vn 0.1863 0.2962 -0.9368
vn 0.0242 0.9980 -0.0583
vn 0.3819 0.0636 -0.9220
vn 0.1124 0.9559 -0.2713
vn 0.2233 0.8121 -0.5391
vn 0.3086 0.5914 -0.7450
vn 0.3655 0.2962 -0.8824
vn 0.0351 0.9980 -0.0525
vn 0.5544 0.0636 -0.8298
vn 0.1631 0.9559 -0.2441
vn 0.3242 0.8121 -0.4852
vn 0.4480 0.5914 -0.6705
vn 0.5306 0.2962 -0.7942
vn 0.0446 0.9980 -0.0446
vn 0.7057 0.0636 -0.7057
vn 0.2076 0.9559 -0.2076
vn 0.4126 0.8121 -0.4126
vn 0.5702 0.5914 -0.5702
vn 0.6754 0.2962 -0.6754
vn 0.0525 0.9980 -0.0351
vn 0.8298 0.0636 -0.5544
vn 0.2441 0.9559 -0.1631
vn 0.4852 0.8121 -0.3242
vn 0.6705 0.5914 -0.4480
vn 0.7942 0.2962 -0.5306
vn 0.0583 0.9980 -0.0242
vn 0.9220 0.0636 -0.3819
vn 0.2713 0.9559 -0.1124
vn 0.5391 0.8121 -0.2233
vn 0.7450 0.5914 -0.3086
vn 0.8824 0.2962 -0.3655
vn 0.0619 0.9980 -0.0123
vn 0.9788 0.0636 -0.1947
vn 0.2880 0.9559 -0.0573
vn 0.5723 0.8121 -0.1138
vn 0.7909 0.5914 -0.1573
vn 0.9368 0.2962 -0.1863
vn 0.0631 0.9980 -0.0000
vn 0.9980 0.0636 -0.0000
vn 0.2936 0.9559 -0.0000
vn 0.5835 0.8121 -0.0000
vn 0.8064 0.5914 -0.0000
vn 0.9551 0.2962 -0.0000
vn 0.0619 0.9980 0.0123
vn 0.9788 0.0636 0.1947
vn 0.2880 0.9559 0.0573
vn 0.5723 0.8121 0.1138
vn 0.7909 0.5914 0.1573
vn 0.9368 0.2962 0.1863
vn 0.0583 0.9980 0.0242
vn 0.9220 0.0636 0.3819
vn 0.2713 0.9559 0.1124
vn 0.5391 0.8121 0.2233
vn 0.7450 0.5914 0.3086
vn 0.8824 0.2962 0.3655
vn 0.0525 0.9980 0.0351
vn 0.8298 0.0636 0.5544
vn 0.2441 0.9559 0.1631
vn 0.4852 0.8121 0.3242
vn 0.6705 0.5914 0.4480
vn 0.7942 0.2962 0.5306
vn 0.0446 0.9980 0.0446
vn 0.7057 0.0636 0.7057
vn 0.2076 0.9559 0.2076
vn 0.4126 0.8121 0.4126
vn 0.5702 0.5914 0.5702
vn 0.6754 0.2962 0.6754
vn 0.0351 0.9980 0.0525
vn 0.5544 0.0636 0.8298
vn 0.1631 0.9559 0.2441
vn 0.3242 0.8121 0.4852
vn 0.4480 0.5914 0.6705
vn 0.5306 0.2962 0.7942
vn 0.0242 0.9980 0.0583
vn 0.3819 0.0636 0.9220
vn 0.1124 0.9559 0.2713
vn 0.2233 0.8121 0.5391
vn 0.3086 0.5914 0.7450
vn 0.3655 0.2962 0.8824
vn 0.0123 0.9980 0.0619
vn 0.1947 0.0636 0.9788
vn 0.0573 0.9559 0.2880
vn 0.1138 0.8121 0.5723
vn 0.1573 0.5914 0.7909
vn 0.1863 0.2962 0.9368
vt 1.000000 0.579511
vt 0.968750 0.579511
vt 0.968750 0.554941
vt 0.999935 0.554941
vt 0.968750 0.500000
vt 0.999746 0.500000
vt 0.750000 0.489963
vt 0.796814 0.485352
vt 0.795179 0.477134
vt 0.750000 0.481584
vt 0.794069 0.471552
vt 0.750000 0.475892
vt 0.792838 0.465364
vt 0.750000 0.469583
vt 0.937500 0.579511
vt 0.937500 0.554941
vt 0.937500 0.500000
vt 0.841830 0.471696
vt 0.838623 0.463955
vt 0.836445 0.458697
vt 0.834031 0.452868
vt 0.906250 0.579511
vt 0.906250 0.554941
vt 0.906250 0.500000
vt 0.883316 0.449522
vt 0.878661 0.442555
vt 0.875499 0.437822
vt 0.871994 0.432577
vt 0.875000 0.579511
vt 0.875000 0.554941
vt 0.875000 0.500000
vt 0.919679 0.419679
vt 0.913754 0.413754
vt 0.909730 0.409730
vt 0.905269 0.405269
vt 0.843750 0.579511
vt 0.843750 0.554941
vt 0.843750 0.500000
vt 0.949522 0.383316
vt 0.942555 0.378661
vt 0.937823 0.375499
vt 0.932577 0.371994
vt 0.812500 0.579511
vt 0.812500 0.554941
vt 0.812500 0.500000
vt 0.971696 0.341830
vt 0.963955 0.338623
vt 0.958697 0.336445
vt 0.952868 0.334031
vt 0.781250 0.579511
vt 0.781250 0.554941
vt 0.781250 0.500000
vt 0.985352 0.296814
vt 0.977134 0.295180
vt 0.971552 0.294069
vt 0.965364 0.292838
vt 0.750000 0.579511
vt 0.750000 0.554941
vt 0.750000 0.500000
vt 0.989963 0.250000
vt 0.981584 0.250000
vt 0.975892 0.250000
vt 0.969583 0.250000
vt 0.718750 0.579511
vt 0.718750 0.554941
vt 0.718750 0.500000
vt 0.985352 0.203186
vt 0.977134 0.204820
vt 0.971552 0.205931
vt 0.965364 0.207162
vt 0.687500 0.579511
vt 0.687500 0.554941
vt 0.687500 0.500000
vt 0.971696 0.158170
vt 0.963955 0.161377
vt 0.958697 0.163555
vt 0.952868 0.165969
vt 0.656250 0.579511
vt 0.656250 0.554941
vt 0.656250 0.500000
vt 0.949522 0.116684
vt 0.942555 0.121339
vt 0.937823 0.124501
vt 0.932577 0.128006
vt 0.625000 0.579511
vt 0.625000 0.554941
vt 0.625000 0.500000
vt 0.919679 0.080321
vt 0.913754 0.086246
vt 0.909730 0.090270
vt 0.905269 0.094731
vt 0.593750 0.579511
vt 0.593750 0.554941
vt 0.593750 0.500000
vt 0.883316 0.050478
vt 0.878661 0.057445
vt 0.875499 0.062178
vt 0.871994 0.067424
vt 0.562500 0.579511
vt 0.562500 0.554941
vt 0.562500 0.500000
vt 0.841830 0.028304
vt 0.838623 0.036045
vt 0.836445 0.041303
vt 0.834031 0.047132
vt 0.531250 0.579511
vt 0.531250 0.554941
vt 0.531250 0.500000
vt 0.796814 0.014648
vt 0.795180 0.022866
vt 0.794069 0.028448
vt 0.792839 0.034636
vt 0.500000 0.579511
vt 0.500000 0.554941
vt 0.500000 0.500000
vt 0.750000 0.010037
vt 0.750000 0.018416
vt 0.750000 0.024108
vt 0.750000 0.030417
vt 0.468750 0.579511
vt 0.468750 0.554941
vt 0.468750 0.500000
vt 0.703186 0.014648
vt 0.704820 0.022866
vt 0.705931 0.028448
vt 0.707162 0.034636
vt 0.437500 0.579511
vt 0.437500 0.554941
vt 0.437500 0.500000
vt 0.658170 0.028304
vt 0.661377 0.036045
vt 0.663555 0.041303
vt 0.665969 0.047132
vt 0.406250 0.579511
vt 0.406250 0.554941
vt 0.406250 0.500000
vt 0.616684 0.050478
vt 0.621339 0.057445
vt 0.624501 0.062178
vt 0.628006 0.067424
vt 0.375000 0.579511
vt 0.375000 0.554941
vt 0.375000 0.500000
vt 0.580321 0.080321
vt 0.586245 0.086246
vt 0.590270 0.090270
vt 0.594732 0.094731
vt 0.343750 0.579511
vt 0.343750 0.554941
vt 0.343750 0.500000
vt 0.550478 0.116684
vt 0.557445 0.121339
vt 0.562178 0.124501
vt 0.567424 0.128006
vt 0.312500 0.579511
vt 0.312500 0.554941
vt 0.312500 0.500000
vt 0.528304 0.158170
vt 0.536045 0.161377
vt 0.541303 0.163555
vt 0.547132 0.165969
vt 0.281250 0.579511
vt 0.281250 0.554941
vt 0.281250 0.500000
vt 0.514648 0.203186
vt 0.522866 0.204820
vt 0.528448 0.205931
vt 0.534636 0.207162
vt 0.250000 0.579511
vt 0.250000 0.554941
vt 0.250000 0.500000
vt 0.510037 0.250000
vt 0.518416 0.250000
vt 0.524108 0.250000
vt 0.530417 0.250000
vt 0.218750 0.579511
vt 0.218750 0.554941
vt 0.218750 0.500000
vt 0.514648 0.296814
vt 0.522866 0.295180
vt 0.528448 0.294069
vt 0.534636 0.292838
vt 0.187500 0.579511
vt 0.187500 0.554941
vt 0.187500 0.500000
vt 0.528304 0.341830
vt 0.536044 0.338623
vt 0.541303 0.336445
vt 0.547132 0.334031
vt 0.156250 0.579511
vt 0.156250 0.554941
vt 0.156250 0.500000
vt 0.550478 0.383316
vt 0.557445 0.378661
vt 0.562178 0.375499
vt 0.567424 0.371994
vt 0.125000 0.579511
vt 0.125000 0.554941
vt 0.125000 0.500000
vt 0.580321 0.419679
vt 0.586246 0.413754
vt 0.590270 0.409730
vt 0.594732 0.405269
vt 0.093750 0.579511
vt 0.093750 0.554941
vt 0.093750 0.500000
vt 0.616684 0.449522
vt 0.621339 0.442555
vt 0.624501 0.437822
vt 0.628006 0.432576
vt 0.062500 0.579511
vt 0.062500 0.554941
vt 0.062500 0.500000
vt 0.658170 0.471696
vt 0.661377 0.463955
vt 0.663555 0.458697
vt 0.665969 0.452868
vt 0.031250 0.579511
vt 0.031250 0.554941
vt 0.031250 0.500000
vt 0.703186 0.485352
vt 0.704820 0.477134
vt 0.705931 0.471552
vt 0.707162 0.465364
vt 0.000000 0.579511
vt 0.000065 0.554941
vt 0.000254 0.500000
vt 1.000000 1.000000
vt 0.968750 1.000000
vt 0.031250 1.000000
vt 0.000000 1.000000
vt 0.937500 1.000000
vt 0.906250 1.000000
vt 0.875000 1.000000
vt 0.843750 1.000000
vt 0.812500 1.000000
vt 0.781250 1.000000
vt 0.750000 1.000000
vt 0.718750 1.000000
vt 0.687500 1.000000
vt 0.656250 1.000000
vt 0.625000 1.000000
vt 0.593750 1.000000
vt 0.562500 1.000000
vt 0.531250 1.000000
vt 0.500000 1.000000
vt 0.468750 1.000000
vt 0.437500 1.000000
vt 0.406250 1.000000
vt 0.375000 1.000000
vt 0.343750 1.000000
vt 0.312500 1.000000
vt 0.281250 1.000000
vt 0.250000 1.000000
vt 0.218750 1.000000
vt 0.187500 1.000000
vt 0.156250 1.000000
vt 0.125000 1.000000
vt 0.093750 1.000000
vt 0.062500 1.000000
s 1
usemtl dice_tray
f 34/1/34 40/2/40 44/3/44 38/4/38
f 38/4/38 44/3/44 43/5/43 37/6/37
f 37/7/37 43/8/43 42/9/42 36/10/36
f 36/10/36 42/9/42 41/11/41 35/12/35
f 35/12/35 41/11/41 39/13/39 33/14/33
f 40/2/40 46/15/46 50/16/50 44/3/44
f 44/3/44 50/16/50 49/17/49 43/5/43
f 43/8/43 49/18/49 48/19/48 42/9/42
f 42/9/42 48/19/48 47/20/47 41/11/41
f 41/11/41 47/20/47 45/21/45 39/13/39
f 46/15/46 52/22/52 56/23/56 50/16/50
f 50/16/50 56/23/56 55/24/55 49/17/49
f 49/18/49 55/25/55 54/26/54 48/19/48
f 48/19/48 54/26/54 53/27/53 47/20/47
f 47/20/47 53/27/53 51/28/51 45/21/45
f 52/22/52 58/29/58 62/30/62 56/23/56
f 56/23/56 62/30/62 61/31/61 55/24/55
f 55/25/55 61/32/61 60/33/60 54/26/54
f 54/26/54 60/33/60 59/34/59 53/27/53
f 53/27/53 59/34/59 57/35/57 51/28/51
f 58/29/58 64/36/64 68/37/68 62/30/62
f 62/30/62 68/37/68 67/38/67 61/31/61
f 61/32/61 67/39/67 66/40/66 60/33/60
f 60/33/60 66/40/66 65/41/65 59/34/59
f 59/34/59 65/41/65 63/42/63 57/35/57
f 64/36/64 70/43/70 74/44/74 68/37/68
f 68/37/68 74/44/74 73/45/73 67/38/67
f 67/39/67 73/46/73 72/47/72 66/40/66
f 66/40/66 72/47/72 71/48/71 65/41/65
f 65/41/65 71/48/71 69/49/69 63/42/63
f 70/43/70 76/50/76 80/51/80 74/44/74
f 74/44/74 80/51/80 79/52/79 73/45/73
f 73/46/73 79/53/79 78/54/78 72/47/72
f 72/47/72 78/54/78 77/55/77 71/48/71
f 71/48/71 77/55/77 75/56/75 69/49/69
f 76/50/76 82/57/82 86/58/86 80/51/80
f 80/51/80 86/58/86 85/59/85 79/52/79
f 79/53/79 85/60/85 84/61/84 78/54/78
f 78/54/78 84/61/84 83/62/83 77/55/77
f 77/55/77 83/62/83 81/63/81 75/56/75
f 82/57/82 88/64/88 92/65/92 86/58/86
f 86/58/86 92/65/92 91/66/91 85/59/85
f 85/60/85 91/67/91 90/68/90 84/61/84
f 84/61/84 90/68/90 89/69/89 83/62/83
f 83/62/83 89/69/89 87/70/87 81/63/81
f 88/64/88 94/71/94 98/72/98 92/65/92
f 92/65/92 98/72/98 97/73/97 91/66/91
f 91/67/91 97/74/97 96/75/96 90/68/90
f 90/68/90 96/75/96 95/76/95 89/69/89
f 89/69/89 95/76/95 93/77/93 87/70/87
f 94/71/94 100/78/100 104/79/104 98/72/98
f 98/72/98 104/79/104 103/80/103 97/73/97
f 97/74/97 103/81/103 102/82/102 96/75/96
f 96/75/96 102/82/102 101/83/101 95/76/95
f 95/76/95 101/83/101 99/84/99 93/77/93
f 100/78/100 106/85/106 110/86/110 104/79/104
f 104/79/104 110/86/110 109/87/109 103/80/103
f 103/81/103 109/88/109 108/89/108 102/82/102
f 102/82/102 108/89/108 107/90/107 101/83/101
f 101/83/101 107/90/107 105/91/105 99/84/99
f 106/85/106 112/92/112 116/93/116 110/86/110
f 110/86/110 116/93/116 115/94/115 109/87/109
f 109/88/109 115/95/115 114/96/114 108/89/108
f 108/89/108 114/96/114 113/97/113 107/90/107
f 107/90/107 113/97/113 111/98/111 105/91/105
f 112/92/112 118/99/118 122/100/122 116/93/116
f 116/93/116 122/100/122 121/101/121 115/94/115
f 115/95/115 121/102/121 120/103/120 114/96/114
f 114/96/114 120/103/120 119/104/119 113/97/113
f 113/97/113 119/104/119 117/105/117 111/98/111
f 118/99/118 124/106/124 128/107/128 122/100/122
f 122/100/122 128/107/128 127/108/127 121/101/121
f 121/102/121 127/109/127 126/110/126 120/103/120
f 120/103/120 126/110/126 125/111/125 119/104/119
f 119/104/119 125/111/125 123/112/123 117/105/117
f 124/106/124 130/113/130 134/114/134 128/107/128
f 128/107/128 134/114/134 133/115/133 127/108/127
f 127/109/127 133/116/133 132/117/132 126/110/126
f 126/110/126 132/117/132 131/118/131 125/111/125
f 125/111/125 131/118/131 129/119/129 123/112/123
f 130/113/130 136/120/136 140/121/140 134/114/134
f 134/114/134 140/121/140 139/122/139 133/115/133
f 133/116/133 139/123/139 138/124/138 132/117/132
f 132/117/132 138/124/138 137/125/137 131/118/131
f 131/118/131 137/125/137 135/126/135 129/119/129
f 136/120/136 142/127/142 146/128/146 140/121/140
f 140/121/140 146/128/146 145/129/145 139/122/139
f 139/123/139 145/130/145 144/131/144 138/124/138
f 138/124/138 144/131/144 143/132/143 137/125/137
f 137/125/137 143/132/143 141/133/141 135/126/135
f 142/127/142 148/134/148 152/135/152 146/128/146
f 146/128/146 152/135/152 151/136/151 145/129/145
f 145/130/145 151/137/151 150/138/150 144/131/144
f 144/131/144 150/138/150 149/139/149 143/132/143
f 143/132/143 149/139/149 147/140/147 141/133/141
f 148/134/148 154/141/154 158/142/158 152/135/152
f 152/135/152 158/142/158 157/143/157 151/136/151
f 151/137/151 157/144/157 156/145/156 150/138/150
f 150/138/150 156/145/156 155/146/155 149/139/149
f 149/139/149 155/146/155 153/147/153 147/140/147
f 154/141/154 160/148/160 164/149/164 158/142/158
f 158/142/158 164/149/164 163/150/163 157/143/157
f 157/144/157 163/151/163 162/152/162 156/145/156
f 156/145/156 162/152/162 161/153/161 155/146/155
f 155/146/155 161/153/161 159/154/159 153/147/153
f 160/148/160 166/155/166 170/156/170 164/149/164
f 164/149/164 170/156/170 169/157/169 163/150/163
f 163/151/163 169/158/169 168/159/168 162/152/162
f 162/152/162 168/159/168 167/160/167 161/153/161
f 161/153/161 167/160/167 165/161/165 159/154/159
f 166/155/166 172/162/172 176/163/176 170/156/170
f 170/156/170 176/163/176 175/164/175 169/157/169
f 169/158/169 175/165/175 174/166/174 168/159/168
f 168/159/168 174/166/174 173/167/173 167/160/167
f 167/160/167 173/167/173 171/168/171 165/161/165
f 172/162/172 178/169/178 182/170/182 176/163/176
f 176/163/176 182/170/182 181/171/181 175/164/175
f 175/165/175 181/172/181 180/173/180 174/166/174
f 174/166/174 180/173/180 179/174/179 173/167/173
f 173/167/173 179/174/179 177/175/177 171/168/171
f 178/169/178 184/176/184 188/177/188 182/170/182
f 182/170/182 188/177/188 187/178/187 181/171/181
f 181/172/181 187/179/187 186/180/186 180/173/180
f 180/173/180 186/180/186 185/181/185 179/174/179
f 179/174/179 185/181/185 183/182/183 177/175/177
f 184/176/184 190/183/190 194/184/194 188/177/188
f 188/177/188 194/184/194 193/185/193 187/178/187
f 187/179/187 193/186/193 192/187/192 186/180/186
f 186/180/186 192/187/192 191/188/191 185/181/185
f 185/181/185 191/188/191 189/189/189 183/182/183
f 190/183/190 196/190/196 200/191/200 194/184/194
f 194/184/194 200/191/200 199/192/199 193/185/193
f 193/186/193 199/193/199 198/194/198 192/187/192
f 192/187/192 198/194/198 197/195/197 191/188/191
f 191/188/191 197/195/197 195/196/195 189/189/189
f 196/190/196 202/197/202 206/198/206 200/191/200
f 200/191/200 206/198/206 205/199/205 199/192/199
f 199/193/199 205/200/205 204/201/204 198/194/198
f 198/194/198 204/201/204 203/202/203 197/195/197
f 197/195/197 203/202/203 201/203/201 195/196/195
f 202/197/202 208/204/208 212/205/212 206/198/206
f 206/198/206 212/205/212 211/206/211 205/199/205
f 205/200/205 211/207/211 210/208/210 204/201/204
f 204/201/204 210/208/210 209/209/209 203/202/203
f 203/202/203 209/209/209 207/210/207 201/203/201
f 208/204/208 214/211/214 218/212/218 212/205/212
f 212/205/212 218/212/218 217/213/217 211/206/211
f 211/207/211 217/214/217 216/215/216 210/208/210
f 210/208/210 216/215/216 215/216/215 209/209/209
f 209/209/209 215/216/215 213/217/213 207/210/207
f 214/211/214 220/218/220 224/219/224 218/212/218
f 218/212/218 224/219/224 223/220/223 217/213/217
f 217/214/217 223/221/223 222/222/222 216/215/216
f 216/215/216 222/222/222 221/223/221 215/216/215
f 215/216/215 221/223/221 219/224/219 213/217/213
f 220/218/220 34/225/34 38/226/38 224/219/224
f 224/219/224 38/226/38 37/227/37 223/220/223
f 223/221/223 37/7/37 36/10/36 222/222/222
f 222/222/222 36/10/36 35/12/35 221/223/221
f 221/223/221 35/12/35 33/14/33 219/224/219
f 33/14/33 39/13/39 45/21/45 51/28/51 57/35/57 63/42/63 69/49/69 75/56/75 81/63/81 87/70/87 93/77/93 99/84/99 105/91/105 111/98/111 117/105/117 123/112/123 129/119/129 135/126/135 141/133/141 147/140/147 153/147/153 159/154/159 165/161/165 171/168/171 177/175/177 183/182/183 189/189/189 195/196/195 201/203/201 207/210/207 213/217/213 219/224/219
f 34/1/34 1/228/1 2/229/2 40/2/40
f 220/218/220 32/230/32 1/231/1 34/225/34
f 40/2/40 2/229/2 3/232/3 46/15/46
f 46/15/46 3/232/3 4/233/4 52/22/52
f 52/22/52 4/233/4 5/234/5 58/29/58
f 58/29/58 5/234/5 6/235/6 64/36/64
f 64/36/64 6/235/6 7/236/7 70/43/70
f 70/43/70 7/236/7 8/237/8 76/50/76
f 76/50/76 8/237/8 9/238/9 82/57/82
f 82/57/82 9/238/9 10/239/10 88/64/88
f 88/64/88 10/239/10 11/240/11 94/71/94
f 94/71/94 11/240/11 12/241/12 100/78/100
f 100/78/100 12/241/12 13/242/13 106/85/106
f 106/85/106 13/242/13 14/243/14 112/92/112
f 112/92/112 14/243/14 15/244/15 118/99/118
f 118/99/118 15/244/15 16/245/16 124/106/124
f 124/106/124 16/245/16 17/246/17 130/113/130
f 130/113/130 17/246/17 18/247/18 136/120/136
f 136/120/136 18/247/18 19/248/19 142/127/142
f 142/127/142 19/248/19 20/249/20 148/134/148
f 148/134/148 20/249/20 21/250/21 154/141/154
f 154/141/154 21/250/21 22/251/22 160/148/160
f 160/148/160 22/251/22 23/252/23 166/155/166
f 166/155/166 23/252/23 24/253/24 172/162/172
f 172/162/172 24/253/24 25/254/25 178/169/178
f 178/169/178 25/254/25 26/255/26 184/176/184
f 184/176/184 26/255/26 27/256/27 190/183/190
f 190/183/190 27/256/27 28/257/28 196/190/196
f 196/190/196 28/257/28 29/258/29 202/197/202
f 202/197/202 29/258/29 30/259/30 208/204/208
f 208/204/208 30/259/30 31/260/31 214/211/214
f 214/211/214 31/260/31 32/230/32 220/218/220
f 258/1/258 262/4/262 268/3/268 264/2/264
f 262/4/262 261/6/261 267/5/267 268/3/268
f 261/7/261 260/10/260 266/9/266 267/8/267
f 260/10/260 259/12/259 265/11/265 266/9/266
f 259/12/259 257/14/257 263/13/263 265/11/265
f 264/2/264 268/3/268 274/16/274 270/15/270
f 268/3/268 267/5/267 273/17/273 274/16/274
f 267/8/267 266/9/266 272/19/272 273/18/273
f 266/9/266 265/11/265 271/20/271 272/19/272
f 265/11/265 263/13/263 269/21/269 271/20/271
f 270/15/270 274/16/274 280/23/280 276/22/276
f 274/16/274 273/17/273 279/24/279 280/23/280
f 273/18/273 272/19/272 278/26/278 279/25/279
f 272/19/272 271/20/271 277/27/277 278/26/278
f 271/20/271 269/21/269 275/28/275 277/27/277
f 276/22/276 280/23/280 286/30/286 282/29/282
f 280/23/280 279/24/279 285/31/285 286/30/286
f 279/25/279 278/26/278 284/33/284 285/32/285
f 278/26/278 277/27/277 283/34/283 284/33/284
f 277/27/277 275/28/275 281/35/281 283/34/283
f 282/29/282 286/30/286 292/37/292 288/36/288
f 286/30/286 285/31/285 291/38/291 292/37/292
f 285/32/285 284/33/284 290/40/290 291/39/291
f 284/33/284 283/34/283 289/41/289 290/40/290
f 283/34/283 281/35/281 287/42/287 289/41/289
f 288/36/288 292/37/292 298/44/298 294/43/294
f 292/37/292 291/38/291 297/45/297 298/44/298
f 291/39/291 290/40/290 296/47/296 297/46/297
f 290/40/290 289/41/289 295/48/295 296/47/296
f 289/41/289 287/42/287 293/49/293 295/48/295
f 294/43/294 298/44/298 304/51/304 300/50/300
f 298/44/298 297/45/297 303/52/303 304/51/304
f 297/46/297 296/47/296 302/54/302 303/53/303
f 296/47/296 295/48/295 301/55/301 302/54/302
f 295/48/295 293/49/293 299/56/299 301/55/301
f 300/50/300 304/51/304 310/58/310 306/57/306
f 304/51/304 303/52/303 309/59/309 310/58/310
f 303/53/303 302/54/302 308/61/308 309/60/309
f 302/54/302 301/55/301 307/62/307 308/61/308
f 301/55/301 299/56/299 305/63/305 307/62/307
f 306/57/306 310/58/310 316/65/316 312/64/312
f 310/58/310 309/59/309 315/66/315 316/65/316
f 309/60/309 308/61/308 314/68/314 315/67/315
f 308/61/308 307/62/307 313/69/313 314/68/314
f 307/62/307 305/63/305 311/70/311 313/69/313
f 312/64/312 316/65/316 322/72/322 318/71/318
f 316/65/316 315/66/315 321/73/321 322/72/322
f 315/67/315 314/68/314 320/75/320 321/74/321
f 314/68/314 313/69/313 319/76/319 320/75/320
f 313/69/313 311/70/311 317/77/317 319/76/319
f 318/71/318 322/72/322 328/79/328 324/78/324
f 322/72/322 321/73/321 327/80/327 328/79/328
f 321/74/321 320/75/320 326/82/326 327/81/327
f 320/75/320 319/76/319 325/83/325 326/82/326
f 319/76/319 317/77/317 323/84/323 325/83/325
f 324/78/324 328/79/328 334/86/334 330/85/330
f 328/79/328 327/80/327 333/87/333 334/86/334
f 327/81/327 326/82/326 332/89/332 333/88/333
f 326/82/326 325/83/325 331/90/331 332/89/332
f 325/83/325 323/84/323 329/91/329 331/90/331
f 330/85/330 334/86/334 340/93/340 336/92/336
f 334/86/334 333/87/333 339/94/339 340/93/340
f 333/88/333 332/89/332 338/96/338 339/95/339
f 332/89/332 331/90/331 337/97/337 338/96/338
f 331/90/331 329/91/329 335/98/335 337/97/337
f 336/92/336 340/93/340 346/100/346 342/99/342
f 340/93/340 339/94/339 345/101/345 346/100/346
f 339/95/339 338/96/338 344/103/344 345/102/345
f 338/96/338 337/97/337 343/104/343 344/103/344
f 337/97/337 335/98/335 341/105/341 343/104/343
f 342/99/342 346/100/346 352/107/352 348/106/348
f 346/100/346 345/101/345 351/108/351 352/107/352
f 345/102/345 344/103/344 350/110/350 351/109/351
f 344/103/344 343/104/343 349/111/349 350/110/350
f 343/104/343 341/105/341 347/112/347 349/111/349
f 348/106/348 352/107/352 358/114/358 354/113/354
f 352/107/352 351/108/351 357/115/357 358/114/358
f 351/109/351 350/110/350 356/117/356 357/116/357
f 350/110/350 349/111/349 355/118/355 356/117/356
f 349/111/349 347/112/347 353/119/353 355/118/355
f 354/113/354 358/114/358 364/121/364 360/120/360
f 358/114/358 357/115/357 363/122/363 364/121/364
f 357/116/357 356/117/356 362/124/362 363/123/363
f 356/117/356 355/118/355 361/125/361 362/124/362
f 355/118/355 353/119/353 359/126/359 361/125/361
f 360/120/360 364/121/364 370/128/370 366/127/366
f 364/121/364 363/122/363 369/129/369 370/128/370
f 363/123/363 362/124/362 368/131/368 369/130/369
f 362/124/362 361/125/361 367/132/367 368/131/368
f 361/125/361 359/126/359 365/133/365 367/132/367
f 366/127/366 370/128/370 376/135/376 372/134/372
f 370/128/370 369/129/369 375/136/375 376/135/376
f 369/130/369 368/131/368 374/138/374 375/137/375
f 368/131/368 367/132/367 373/139/373 374/138/374
f 367/132/367 365/133/365 371/140/371 373/139/373
f 372/134/372 376/135/376 382/142/382 378/141/378
f 376/135/376 375/136/375 381/143/381 382/142/382
f 375/137/375 374/138/374 380/145/380 381/144/381
f 374/138/374 373/139/373 379/146/379 380/145/380
f 373/139/373 371/140/371 377/147/377 379/146/379
f 378/141/378 382/142/382 388/149/388 384/148/384
f 382/142/382 381/143/381 387/150/387 388/149/388
f 381/144/381 380/145/380 386/152/386 387/151/387
f 380/145/380 379/146/379 385/153/385 386/152/386
f 379/146/379 377/147/377 383/154/383 385/153/385
f 384/148/384 388/149/388 394/156/394 390/155/390
f 388/149/388 387/150/387 393/157/393 394/156/394
f 387/151/387 386/152/386 392/159/392 393/158/393
f 386/152/386 385/153/385 391/160/391 392/159/392
f 385/153/385 383/154/383 389/161/389 391/160/391
f 390/155/390 394/156/394 400/163/400 396/162/396
f 394/156/394 393/157/393 399/164/399 400/163/400
f 393/158/393 392/159/392 398/166/398 399/165/399
f 392/159/392 391/160/391 397/167/397 398/166/398
f 391/160/391 389/161/389 395/168/395 397/167/397
f 396/162/396 400/163/400 406/170/406 402/169/402
f 400/163/400 399/164/399 405/171/405 406/170/406
f 399/165/399 398/166/398 404/173/404 405/172/405
f 398/166/398 397/167/397 403/174/403 404/173/404
f 397/167/397 395/168/395 401/175/401 403/174/403
f 402/169/402 406/170/406 412/177/412 408/176/408
f 406/170/406 405/171/405 411/178/411 412/177/412
f 405/172/405 404/173/404 410/180/410 411/179/411
f 404/173/404 403/174/403 409/181/409 410/180/410
f 403/174/403 401/175/401 407/182/407 409/181/409
f 408/176/408 412/177/412 418/184/418 414/183/414
f 412/177/412 411/178/411 417/185/417 418/184/418
f 411/179/411 410/180/410 416/187/416 417/186/417
f 410/180/410 409/181/409 415/188/415 416/187/416
f 409/181/409 407/182/407 413/189/413 415/188/415
f 414/183/414 418/184/418 424/191/424 420/190/420
f 418/184/418 417/185/417 423/192/423 424/191/424
f 417/186/417 416/187/416 422/194/422 423/193/423
f 416/187/416 415/188/415 421/195/421 422/194/422
f 415/188/415 413/189/413 419/196/419 421/195/421
f 420/190/420 424/191/424 430/198/430 426/197/426
f 424/191/424 423/192/423 429/199/429 430/198/430
f 423/193/423 422/194/422 428/201/428 429/200/429
f 422/194/422 421/195/421 427/202/427 428/201/428
f 421/195/421 419/196/419 425/203/425 427/202/427
f 426/197/426 430/198/430 436/205/436 432/204/432
f 430/198/430 429/199/429 435/206/435 436/205/436
f 429/200/429 428/201/428 434/208/434 435/207/435
f 428/201/428 427/202/427 433/209/433 434/208/434
f 427/202/427 425/203/425 431/210/431 433/209/433
f 432/204/432 436/205/436 442/212/442 438/211/438
f 436/205/436 435/206/435 441/213/441 442/212/442
f 435/207/435 434/208/434 440/215/440 441/214/441
f 434/208/434 433/209/433 439/216/439 440/215/440
f 433/209/433 431/210/431 437/217/437 439/216/439
f 438/211/438 442/212/442 448/219/448 444/218/444
f 442/212/442 441/213/441 447/220/447 448/219/448
f 441/214/441 440/215/440 446/222/446 447/221/447
f 440/215/440 439/216/439 445/223/445 446/222/446
f 439/216/439 437/217/437 443/224/443 445/223/445
f 444/218/444 448/219/448 262/226/262 258/225/258
f 448/219/448 447/220/447 261/227/261 262/226/262
f 447/221/447 446/222/446 260/10/260 261/7/261
f 446/222/446 445/223/445 259/12/259 260/10/260
f 445/223/445 443/224/443 257/14/257 259/12/259
f 257/14/257 443/224/443 437/217/437 431/210/431 425/203/425 419/196/419 413/189/413 407/182/407 401/175/401 395/168/395 389/161/389 383/154/383 377/147/377 371/140/371 365/133/365 359/126/359 353/119/353 347/112/347 341/105/341 335/98/335 329/91/329 323/84/323 317/77/317 311/70/311 305/63/305 299/56/299 293/49/293 287/42/287 281/35/281 275/28/275 269/21/269 263/13/263
f 258/1/258 264/2/264 226/229/226 225/228/225
f 444/218/444 258/225/258 225/231/225 256/230/256
f 264/2/264 270/15/270 227/232/227 226/229/226
f 270/15/270 276/22/276 228/233/228 227/232/227
f 276/22/276 282/29/282 229/234/229 228/233/228
f 282/29/282 288/36/288 230/235/230 229/234/229
f 288/36/288 294/43/294 231/236/231 230/235/230
f 294/43/294 300/50/300 232/237/232 231/236/231
f 300/50/300 306/57/306 233/238/233 232/237/232
f 306/57/306 312/64/312 234/239/234 233/238/233
f 312/64/312 318/71/318 235/240/235 234/239/234
f 318/71/318 324/78/324 236/241/236 235/240/235
f 324/78/324 330/85/330 237/242/237 236/241/236
f 330/85/330 336/92/336 238/243/238 237/242/237
f 336/92/336 342/99/342 239/244/239 238/243/238
f 342/99/342 348/106/348 240/245/240 239/244/239
f 348/106/348 354/113/354 241/246/241 240/245/240
f 354/113/354 360/120/360 242/247/242 241/246/241
f 360/120/360 366/127/366 243/248/243 242/247/242
f 366/127/366 372/134/372 244/249/244 243/248/243
f 372/134/372 378/141/378 245/250/245 244/249/244
f 378/141/378 384/148/384 246/251/246 245/250/245
f 384/148/384 390/155/390 247/252/247 246/251/246
f 390/155/390 396/162/396 248/253/248 247/252/247
f 396/162/396 402/169/402 249/254/249 248/253/248
f 402/169/402 408/176/408 250/255/250 249/254/249
f 408/176/408 414/183/414 251/256/251 250/255/250
f 414/183/414 420/190/420 252/257/252 251/256/251
f 420/190/420 426/197/426 253/258/253 252/257/252
f 426/197/426 432/204/432 254/259/254 253/258/253
f 432/204/432 438/211/438 255/260/255 254/259/254
f 438/211/438 444/218/444 256/230/256 255/260/255
f 2/229/2 1/228/1 225/228/225 226/229/226
f 3/232/3 2/229/2 226/229/226 227/232/227
f 4/233/4 3/232/3 227/232/227 228/233/228
f 5/234/5 4/233/4 228/233/228 229/234/229
f 6/235/6 5/234/5 229/234/229 230/235/230
f 7/236/7 6/235/6 230/235/230 231/236/231
f 8/237/8 7/236/7 231/236/231 232/237/232
f 9/238/9 8/237/8 232/237/232 233/238/233
f 10/239/10 9/238/9 233/238/233 234/239/234
f 11/240/11 10/239/10 234/239/234 235/240/235
f 12/241/12 11/240/11 235/240/235 236/241/236
f 13/242/13 12/241/12 236/241/236 237/242/237
f 14/243/14 13/242/13 237/242/237 238/243/238
f 15/244/15 14/243/14 238/243/238 239/244/239
f 16/245/16 15/244/15 239/244/239 240/245/240
f 17/246/17 16/245/16 240/245/240 241/246/241
f 18/247/18 17/246/17 241/246/241 242/247/242
f 19/248/19 18/247/18 242/247/242 243/248/243
f 20/249/20 19/248/19 243/248/243 244/249/244
f 21/250/21 20/249/20 244/249/244 245/250/245
f 22/251/22 21/250/21 245/250/245 246/251/246
f 23/252/23 22/251/22 246/251/246 247/252/247
f 24/253/24 23/252/23 247/252/247 248/253/248
f 25/254/25 24/253/24 248/253/248 249/254/249
f 26/255/26 25/254/25 249/254/249 250/255/250
f 27/256/27 26/255/26 250/255/250 251/256/251
f 28/257/28 27/256/27 251/256/251 252/257/252
f 29/258/29 28/257/28 252/257/252 253/258/253
f 30/259/30 29/258/29 253/258/253 254/259/254
f 31/260/31 30/259/30 254/259/254 255/260/255
f 32/230/32 31/260/31 255/260/255 256/230/256
f 1/231/1 32/230/32 256/230/256 225/231/225
